<svg xmlns="http://www.w3.org/2000/svg" xmlns:xlink="http://www.w3.org/1999/xlink" width="266" zoomAndPan="magnify" viewBox="0 0 199.5 48.75" height="65" preserveAspectRatio="xMidYMid meet" version="1.0"><defs><g/><clipPath id="0c4ba228d0"><path d="M 0.261719 0 L 198.742188 0 L 198.742188 48.5 L 0.261719 48.5 Z M 0.261719 0 " clip-rule="nonzero"/></clipPath><clipPath id="880a0b1711"><path d="M 5.109375 7.566406 L 33.464844 7.566406 L 33.464844 43.382812 L 5.109375 43.382812 Z M 5.109375 7.566406 " clip-rule="nonzero"/></clipPath><clipPath id="666577f67a"><path d="M 5.109375 16 L 14 16 L 14 43.382812 L 5.109375 43.382812 Z M 5.109375 16 " clip-rule="nonzero"/></clipPath><clipPath id="1b000b5cdc"><path d="M 10 16 L 33.464844 16 L 33.464844 43.382812 L 10 43.382812 Z M 10 16 " clip-rule="nonzero"/></clipPath><clipPath id="772481320f"><path d="M 5.109375 7.566406 L 33.464844 7.566406 L 33.464844 43.382812 L 5.109375 43.382812 Z M 5.109375 7.566406 " clip-rule="nonzero"/></clipPath><clipPath id="9cd58c808c"><path d="M 14 7.566406 L 25 7.566406 L 25 19 L 14 19 Z M 14 7.566406 " clip-rule="nonzero"/></clipPath><clipPath id="8d59bab097"><path d="M 25.125 19.238281 L 44.523438 19.238281 L 44.523438 43.863281 L 25.125 43.863281 Z M 25.125 19.238281 " clip-rule="nonzero"/></clipPath><clipPath id="85d90e0fd2"><path d="M 25.125 25 L 31 25 L 31 43.863281 L 25.125 43.863281 Z M 25.125 25 " clip-rule="nonzero"/></clipPath><clipPath id="a25b0f2faf"><path d="M 29 25 L 44.523438 25 L 44.523438 43.863281 L 29 43.863281 Z M 29 25 " clip-rule="nonzero"/></clipPath><clipPath id="95b5013c6c"><path d="M 25.125 19.238281 L 44.523438 19.238281 L 44.523438 43.863281 L 25.125 43.863281 Z M 25.125 19.238281 " clip-rule="nonzero"/></clipPath><clipPath id="49ce69a015"><path d="M 31 19.238281 L 39 19.238281 L 39 27 L 31 27 Z M 31 19.238281 " clip-rule="nonzero"/></clipPath></defs><g clip-path="url(#0c4ba228d0)"><path fill="#ffffff" d="M 0.261719 0 L 198.742188 0 L 198.742188 48.5 L 0.261719 48.5 Z M 0.261719 0 " fill-opacity="1" fill-rule="nonzero"/><path fill="#ffffff" d="M 0.261719 0 L 198.742188 0 L 198.742188 48.5 L 0.261719 48.5 Z M 0.261719 0 " fill-opacity="1" fill-rule="nonzero"/></g><g clip-path="url(#880a0b1711)"><path fill="#1c0072" d="M 33.460938 43.277344 L 30.460938 16.214844 C 30.457031 16.171875 30.417969 16.136719 30.371094 16.136719 L 25.136719 16.136719 L 25.136719 11.679688 C 25.136719 9.414062 23.300781 7.574219 21.046875 7.574219 C 20.625 7.574219 20.214844 7.636719 19.832031 7.757812 C 19.449219 7.636719 19.042969 7.574219 18.621094 7.574219 C 16.363281 7.574219 14.527344 9.414062 14.527344 11.679688 L 14.527344 16.136719 L 8.199219 16.136719 C 8.152344 16.136719 8.113281 16.171875 8.109375 16.214844 L 5.109375 43.277344 C 5.109375 43.28125 5.109375 43.28125 5.109375 43.285156 C 5.109375 43.285156 5.109375 43.285156 5.109375 43.289062 C 5.109375 43.296875 5.113281 43.308594 5.117188 43.316406 C 5.117188 43.320312 5.117188 43.320312 5.117188 43.320312 C 5.121094 43.332031 5.125 43.339844 5.132812 43.347656 C 5.132812 43.347656 5.132812 43.347656 5.136719 43.347656 C 5.136719 43.351562 5.136719 43.351562 5.136719 43.351562 C 5.144531 43.359375 5.152344 43.363281 5.164062 43.367188 C 5.164062 43.371094 5.164062 43.371094 5.164062 43.371094 C 5.175781 43.375 5.1875 43.375 5.195312 43.375 C 5.195312 43.375 5.195312 43.375 5.199219 43.375 L 33.371094 43.375 C 33.398438 43.375 33.421875 43.367188 33.4375 43.347656 C 33.453125 43.328125 33.460938 43.300781 33.460938 43.277344 Z M 18.542969 8.433594 C 17.578125 9.183594 16.953125 10.359375 16.953125 11.679688 L 16.953125 16.136719 L 15.382812 16.136719 L 15.382812 11.679688 C 15.382812 9.914062 16.792969 8.472656 18.542969 8.433594 Z M 24.28125 11.679688 L 24.28125 16.136719 L 22.710938 16.136719 L 22.710938 11.679688 C 22.710938 10.359375 22.085938 9.183594 21.121094 8.433594 C 22.871094 8.472656 24.28125 9.914062 24.28125 11.679688 Z M 21.855469 11.679688 L 21.855469 16.136719 L 17.808594 16.136719 L 17.808594 11.679688 C 17.808594 10.320312 18.648438 9.152344 19.832031 8.667969 C 21.019531 9.152344 21.855469 10.320312 21.855469 11.679688 Z M 21.855469 11.679688 " fill-opacity="1" fill-rule="nonzero"/></g><g clip-path="url(#666577f67a)"><path fill="#db354d" d="M 5.417969 43.199219 L 9.476562 39.242188 L 13.535156 43.199219 Z M 9.566406 39.082031 L 13.640625 43.050781 L 10.675781 16.3125 L 9.566406 16.3125 Z M 9.386719 39.082031 L 9.386719 16.3125 L 8.277344 16.3125 L 5.3125 43.050781 Z M 9.386719 39.082031 " fill-opacity="1" fill-rule="nonzero"/></g><g clip-path="url(#1b000b5cdc)"><path fill="#ea8b98" d="M 16.953125 16.3125 L 16.953125 18.496094 C 16.953125 18.730469 17.144531 18.921875 17.382812 18.921875 C 17.617188 18.921875 17.808594 18.730469 17.808594 18.496094 L 17.808594 16.3125 L 24.28125 16.3125 L 24.28125 18.496094 C 24.28125 18.730469 24.472656 18.921875 24.710938 18.921875 C 24.945312 18.921875 25.136719 18.730469 25.136719 18.496094 L 25.136719 16.3125 L 25.929688 16.3125 L 27.292969 18.632812 L 27.070312 20.796875 C 27.066406 20.8125 27.070312 20.832031 27.082031 20.847656 L 28.566406 23.492188 C 28.578125 23.515625 28.597656 23.527344 28.621094 23.535156 C 28.628906 23.539062 28.636719 23.539062 28.644531 23.539062 C 28.660156 23.539062 28.675781 23.535156 28.6875 23.527344 L 30.898438 22.277344 C 30.917969 22.265625 30.933594 22.246094 30.941406 22.222656 C 30.945312 22.199219 30.945312 22.175781 30.933594 22.15625 L 29.445312 19.511719 C 29.4375 19.492188 29.421875 19.480469 29.40625 19.472656 L 27.445312 18.546875 L 26.136719 16.3125 L 30.292969 16.3125 L 32.808594 39.027344 L 13.371094 39.027344 L 10.855469 16.3125 Z M 13.390625 39.207031 L 13.835938 43.199219 L 33.273438 43.199219 L 32.832031 39.207031 Z M 13.390625 39.207031 " fill-opacity="1" fill-rule="nonzero"/></g><g clip-path="url(#772481320f)"><path fill="#1c0072" d="M 33.460938 43.277344 L 30.460938 16.214844 C 30.457031 16.171875 30.417969 16.136719 30.371094 16.136719 L 25.136719 16.136719 L 25.136719 11.679688 C 25.136719 9.414062 23.300781 7.574219 21.046875 7.574219 C 20.625 7.574219 20.214844 7.636719 19.832031 7.757812 C 19.449219 7.636719 19.042969 7.574219 18.621094 7.574219 C 16.363281 7.574219 14.527344 9.414062 14.527344 11.679688 L 14.527344 16.136719 L 8.199219 16.136719 C 8.152344 16.136719 8.113281 16.171875 8.109375 16.214844 L 5.109375 43.277344 C 5.109375 43.28125 5.109375 43.28125 5.109375 43.285156 C 5.109375 43.285156 5.109375 43.285156 5.109375 43.289062 C 5.109375 43.296875 5.113281 43.308594 5.117188 43.316406 C 5.117188 43.320312 5.117188 43.320312 5.117188 43.320312 C 5.121094 43.332031 5.125 43.339844 5.132812 43.347656 C 5.132812 43.347656 5.132812 43.347656 5.136719 43.347656 C 5.136719 43.351562 5.136719 43.351562 5.136719 43.351562 C 5.144531 43.359375 5.152344 43.363281 5.164062 43.367188 C 5.164062 43.371094 5.164062 43.371094 5.164062 43.371094 C 5.175781 43.375 5.1875 43.375 5.195312 43.375 C 5.195312 43.375 5.195312 43.375 5.199219 43.375 L 33.371094 43.375 C 33.398438 43.375 33.421875 43.367188 33.4375 43.347656 C 33.453125 43.328125 33.460938 43.300781 33.460938 43.277344 Z M 18.621094 7.75 C 18.9375 7.75 19.246094 7.789062 19.539062 7.863281 C 19.273438 7.96875 19.023438 8.101562 18.789062 8.257812 C 18.730469 8.253906 18.675781 8.253906 18.621094 8.253906 C 16.738281 8.253906 15.207031 9.789062 15.207031 11.679688 L 15.207031 16.136719 L 14.707031 16.136719 L 14.707031 11.679688 C 14.707031 9.511719 16.460938 7.75 18.621094 7.75 Z M 24.960938 18.496094 C 24.960938 18.632812 24.847656 18.746094 24.710938 18.746094 C 24.570312 18.746094 24.460938 18.632812 24.460938 18.496094 L 24.460938 11.679688 C 24.460938 9.789062 22.929688 8.253906 21.046875 8.253906 C 19.164062 8.253906 17.632812 9.789062 17.632812 11.679688 L 17.632812 18.496094 C 17.632812 18.632812 17.519531 18.746094 17.382812 18.746094 C 17.246094 18.746094 17.132812 18.632812 17.132812 18.496094 L 17.132812 11.679688 C 17.132812 9.511719 18.886719 7.75 21.046875 7.75 C 23.203125 7.75 24.960938 9.511719 24.960938 11.679688 Z M 16.953125 16.136719 L 15.382812 16.136719 L 15.382812 11.679688 C 15.382812 9.914062 16.792969 8.472656 18.542969 8.433594 C 17.578125 9.183594 16.953125 10.359375 16.953125 11.679688 Z M 21.855469 11.679688 L 21.855469 16.136719 L 17.808594 16.136719 L 17.808594 11.679688 C 17.808594 10.320312 18.648438 9.152344 19.832031 8.667969 C 21.019531 9.152344 21.855469 10.320312 21.855469 11.679688 Z M 20.074219 8.582031 C 20.316406 8.503906 20.566406 8.457031 20.828125 8.441406 C 21.859375 9.148438 22.535156 10.335938 22.535156 11.679688 L 22.535156 16.136719 L 22.035156 16.136719 L 22.035156 11.679688 C 22.035156 10.3125 21.230469 9.128906 20.074219 8.582031 Z M 21.121094 8.433594 C 22.871094 8.472656 24.28125 9.914062 24.28125 11.679688 L 24.28125 16.136719 L 22.710938 16.136719 L 22.710938 11.679688 C 22.710938 10.359375 22.085938 9.183594 21.121094 8.433594 Z M 16.953125 16.3125 L 16.953125 18.496094 C 16.953125 18.730469 17.144531 18.921875 17.382812 18.921875 C 17.617188 18.921875 17.808594 18.730469 17.808594 18.496094 L 17.808594 16.3125 L 24.28125 16.3125 L 24.28125 18.496094 C 24.28125 18.730469 24.472656 18.921875 24.710938 18.921875 C 24.945312 18.921875 25.136719 18.730469 25.136719 18.496094 L 25.136719 16.3125 L 25.929688 16.3125 L 27.292969 18.632812 L 27.070312 20.796875 C 27.066406 20.8125 27.070312 20.832031 27.082031 20.847656 L 28.566406 23.492188 C 28.578125 23.515625 28.597656 23.527344 28.621094 23.535156 C 28.628906 23.539062 28.636719 23.539062 28.644531 23.539062 C 28.660156 23.539062 28.675781 23.535156 28.6875 23.527344 L 30.898438 22.277344 C 30.917969 22.265625 30.933594 22.246094 30.941406 22.222656 C 30.945312 22.199219 30.945312 22.175781 30.933594 22.15625 L 29.445312 19.511719 C 29.4375 19.492188 29.421875 19.480469 29.40625 19.472656 L 27.445312 18.546875 L 26.136719 16.3125 L 30.292969 16.3125 L 32.808594 39.027344 L 13.371094 39.027344 L 10.855469 16.3125 Z M 27.460938 18.75 L 29.304688 19.621094 L 30.734375 22.164062 L 28.675781 23.328125 L 27.25 20.785156 Z M 10.675781 16.3125 L 13.640625 43.050781 L 9.566406 39.082031 L 9.566406 16.3125 Z M 9.476562 39.242188 L 13.535156 43.199219 L 5.417969 43.199219 Z M 9.386719 16.3125 L 9.386719 39.082031 L 5.3125 43.050781 L 8.277344 16.3125 Z M 13.835938 43.199219 L 13.390625 39.207031 L 32.832031 39.207031 L 33.273438 43.199219 Z M 13.835938 43.199219 " fill-opacity="1" fill-rule="nonzero"/></g><g clip-path="url(#9cd58c808c)"><path fill="#f9ede0" d="M 22.035156 16.136719 L 22.035156 11.679688 C 22.035156 10.3125 21.230469 9.128906 20.074219 8.582031 C 20.316406 8.503906 20.566406 8.457031 20.828125 8.441406 C 21.859375 9.148438 22.535156 10.335938 22.535156 11.679688 L 22.535156 16.136719 Z M 14.707031 16.136719 L 15.207031 16.136719 L 15.207031 11.679688 C 15.207031 9.789062 16.738281 8.253906 18.621094 8.253906 C 18.675781 8.253906 18.730469 8.253906 18.789062 8.257812 C 19.023438 8.101562 19.273438 7.96875 19.539062 7.863281 C 19.246094 7.789062 18.9375 7.75 18.621094 7.75 C 16.460938 7.75 14.707031 9.511719 14.707031 11.679688 Z M 21.046875 7.75 C 18.886719 7.75 17.132812 9.511719 17.132812 11.679688 L 17.132812 18.496094 C 17.132812 18.632812 17.246094 18.746094 17.382812 18.746094 C 17.519531 18.746094 17.632812 18.632812 17.632812 18.496094 L 17.632812 11.679688 C 17.632812 9.789062 19.164062 8.253906 21.046875 8.253906 C 22.929688 8.253906 24.460938 9.789062 24.460938 11.679688 L 24.460938 18.496094 C 24.460938 18.632812 24.570312 18.746094 24.710938 18.746094 C 24.847656 18.746094 24.960938 18.632812 24.960938 18.496094 L 24.960938 11.679688 C 24.960938 9.511719 23.203125 7.75 21.046875 7.75 Z M 21.046875 7.75 " fill-opacity="1" fill-rule="nonzero"/></g><path fill="#ffc943" d="M 27.25 20.785156 L 27.460938 18.75 L 29.304688 19.621094 L 30.734375 22.164062 L 28.675781 23.328125 Z M 27.25 20.785156 " fill-opacity="1" fill-rule="nonzero"/><g fill="#000000" fill-opacity="1"><g transform="translate(15.543577, 29.0363)"><g><path d="M 0.28125 0 L 0.25 -2.125 L 0.671875 -2.140625 L 0.6875 -1.28125 L 0.734375 -1.28125 L 1.421875 -2.15625 L 1.859375 -2.15625 L 1.859375 -2.125 L 1.09375 -1.140625 L 1.96875 -0.0625 L 1.96875 -0.03125 L 1.5 -0.03125 L 0.734375 -0.9375 L 0.6875 -0.9375 L 0.703125 -0.015625 Z M 0.28125 0 "/></g></g><g transform="translate(17.512181, 29.001732)"><g><path d="M 0.625 0.015625 C 0.519531 0.015625 0.429688 0 0.359375 -0.03125 C 0.285156 -0.0625 0.226562 -0.113281 0.1875 -0.1875 C 0.144531 -0.257812 0.117188 -0.347656 0.109375 -0.453125 C 0.109375 -0.546875 0.128906 -0.625 0.171875 -0.6875 C 0.210938 -0.757812 0.273438 -0.816406 0.359375 -0.859375 C 0.441406 -0.910156 0.550781 -0.945312 0.6875 -0.96875 C 0.789062 -0.976562 0.863281 -0.992188 0.90625 -1.015625 C 0.957031 -1.035156 0.992188 -1.054688 1.015625 -1.078125 C 1.035156 -1.097656 1.046875 -1.128906 1.046875 -1.171875 C 1.046875 -1.222656 1.023438 -1.257812 0.984375 -1.28125 C 0.953125 -1.3125 0.894531 -1.328125 0.8125 -1.328125 C 0.71875 -1.328125 0.628906 -1.304688 0.546875 -1.265625 C 0.472656 -1.222656 0.40625 -1.164062 0.34375 -1.09375 L 0.3125 -1.09375 L 0.125 -1.34375 C 0.207031 -1.4375 0.304688 -1.507812 0.421875 -1.5625 C 0.546875 -1.625 0.675781 -1.65625 0.8125 -1.65625 C 1.019531 -1.65625 1.171875 -1.609375 1.265625 -1.515625 C 1.367188 -1.429688 1.425781 -1.3125 1.4375 -1.15625 L 1.453125 -0.453125 C 1.453125 -0.378906 1.484375 -0.34375 1.546875 -0.34375 C 1.566406 -0.34375 1.585938 -0.347656 1.609375 -0.359375 L 1.640625 -0.34375 L 1.65625 -0.0625 C 1.632812 -0.0507812 1.601562 -0.0390625 1.5625 -0.03125 C 1.53125 -0.0195312 1.488281 -0.015625 1.4375 -0.015625 C 1.34375 -0.00390625 1.265625 -0.015625 1.203125 -0.046875 C 1.148438 -0.0859375 1.113281 -0.148438 1.09375 -0.234375 L 1.0625 -0.234375 C 0.988281 -0.0664062 0.84375 0.015625 0.625 0.015625 Z M 0.75 -0.28125 C 0.84375 -0.28125 0.914062 -0.3125 0.96875 -0.375 C 1.019531 -0.4375 1.046875 -0.523438 1.046875 -0.640625 L 1.046875 -0.8125 L 1.015625 -0.8125 C 0.992188 -0.789062 0.960938 -0.773438 0.921875 -0.765625 C 0.878906 -0.753906 0.820312 -0.738281 0.75 -0.71875 C 0.664062 -0.707031 0.601562 -0.679688 0.5625 -0.640625 C 0.519531 -0.609375 0.5 -0.5625 0.5 -0.5 C 0.507812 -0.425781 0.535156 -0.367188 0.578125 -0.328125 C 0.617188 -0.296875 0.675781 -0.28125 0.75 -0.28125 Z M 0.75 -0.28125 "/></g></g><g transform="translate(19.206841, 28.971975)"><g><path d="M 0.734375 0.015625 C 0.554688 0.015625 0.421875 -0.03125 0.328125 -0.125 C 0.242188 -0.21875 0.195312 -0.359375 0.1875 -0.546875 L 0.171875 -1.609375 L 0.578125 -1.625 L 0.59375 -0.609375 C 0.59375 -0.515625 0.613281 -0.441406 0.65625 -0.390625 C 0.707031 -0.347656 0.78125 -0.328125 0.875 -0.328125 C 0.976562 -0.328125 1.054688 -0.363281 1.109375 -0.4375 C 1.171875 -0.507812 1.203125 -0.625 1.203125 -0.78125 L 1.1875 -1.625 L 1.59375 -1.640625 L 1.625 -0.03125 L 1.234375 -0.015625 L 1.234375 -0.25 L 1.203125 -0.265625 C 1.148438 -0.171875 1.085938 -0.0976562 1.015625 -0.046875 C 0.941406 -0.00390625 0.847656 0.015625 0.734375 0.015625 Z M 0.734375 0.015625 "/></g></g><g transform="translate(21.066158, 28.939327)"><g><path d="M 0.75 0.015625 C 0.644531 0.015625 0.546875 0.00390625 0.453125 -0.015625 C 0.359375 -0.0351562 0.28125 -0.0664062 0.21875 -0.109375 C 0.15625 -0.160156 0.109375 -0.210938 0.078125 -0.265625 L 0.28125 -0.515625 L 0.3125 -0.515625 C 0.375 -0.441406 0.441406 -0.390625 0.515625 -0.359375 C 0.585938 -0.328125 0.664062 -0.3125 0.75 -0.3125 C 0.832031 -0.3125 0.894531 -0.320312 0.9375 -0.34375 C 0.976562 -0.375 0.992188 -0.414062 0.984375 -0.46875 C 0.984375 -0.507812 0.96875 -0.546875 0.9375 -0.578125 C 0.90625 -0.609375 0.859375 -0.628906 0.796875 -0.640625 L 0.578125 -0.6875 C 0.421875 -0.71875 0.304688 -0.769531 0.234375 -0.84375 C 0.160156 -0.925781 0.125 -1.03125 0.125 -1.15625 C 0.125 -1.25 0.144531 -1.332031 0.1875 -1.40625 C 0.238281 -1.476562 0.304688 -1.535156 0.390625 -1.578125 C 0.484375 -1.628906 0.59375 -1.65625 0.71875 -1.65625 C 0.863281 -1.65625 0.984375 -1.632812 1.078125 -1.59375 C 1.171875 -1.550781 1.25 -1.5 1.3125 -1.4375 L 1.109375 -1.1875 L 1.078125 -1.1875 C 1.035156 -1.238281 0.984375 -1.273438 0.921875 -1.296875 C 0.867188 -1.316406 0.804688 -1.328125 0.734375 -1.328125 C 0.578125 -1.328125 0.5 -1.28125 0.5 -1.1875 C 0.5 -1.144531 0.515625 -1.109375 0.546875 -1.078125 C 0.578125 -1.054688 0.628906 -1.035156 0.703125 -1.015625 L 0.90625 -0.984375 C 1.0625 -0.941406 1.175781 -0.882812 1.25 -0.8125 C 1.332031 -0.738281 1.375 -0.640625 1.375 -0.515625 C 1.382812 -0.410156 1.363281 -0.316406 1.3125 -0.234375 C 1.257812 -0.148438 1.1875 -0.0859375 1.09375 -0.046875 C 1 -0.00390625 0.882812 0.015625 0.75 0.015625 Z M 0.75 0.015625 "/></g></g><g transform="translate(22.548075, 28.913305)"><g><path d="M 0.234375 0 L 0.1875 -2.25 L 0.59375 -2.265625 L 0.609375 -1.40625 L 0.640625 -1.40625 C 0.691406 -1.488281 0.753906 -1.550781 0.828125 -1.59375 C 0.910156 -1.632812 1.003906 -1.65625 1.109375 -1.65625 C 1.460938 -1.664062 1.644531 -1.46875 1.65625 -1.0625 L 1.671875 -0.03125 L 1.265625 -0.015625 L 1.25 -1 C 1.25 -1.101562 1.226562 -1.179688 1.1875 -1.234375 C 1.144531 -1.285156 1.078125 -1.3125 0.984375 -1.3125 C 0.867188 -1.3125 0.78125 -1.273438 0.71875 -1.203125 C 0.65625 -1.128906 0.625 -1.007812 0.625 -0.84375 L 0.640625 -0.015625 Z M 0.234375 0 "/></g></g><g transform="translate(24.430707, 28.880247)"><g><path d="M 0.40625 -1.796875 C 0.332031 -1.796875 0.269531 -1.816406 0.21875 -1.859375 C 0.175781 -1.910156 0.15625 -1.96875 0.15625 -2.03125 C 0.15625 -2.101562 0.175781 -2.160156 0.21875 -2.203125 C 0.257812 -2.242188 0.316406 -2.265625 0.390625 -2.265625 C 0.429688 -2.273438 0.472656 -2.269531 0.515625 -2.25 C 0.566406 -2.238281 0.601562 -2.210938 0.625 -2.171875 C 0.644531 -2.140625 0.65625 -2.097656 0.65625 -2.046875 C 0.65625 -2.003906 0.644531 -1.960938 0.625 -1.921875 C 0.601562 -1.890625 0.570312 -1.863281 0.53125 -1.84375 C 0.488281 -1.820312 0.445312 -1.804688 0.40625 -1.796875 Z M 0.234375 0 L 0.203125 -1.609375 L 0.609375 -1.625 L 0.640625 -0.015625 Z M 0.234375 0 "/></g></g><g transform="translate(25.296252, 28.865049)"><g><path d="M 0.234375 0 L 0.1875 -2.25 L 0.59375 -2.265625 L 0.625 -1.015625 L 0.65625 -1.015625 L 1.109375 -1.625 L 1.515625 -1.640625 L 1.515625 -1.609375 L 0.984375 -0.890625 L 1.609375 -0.0625 L 1.609375 -0.03125 L 1.1875 -0.015625 L 0.65625 -0.6875 L 0.625 -0.6875 L 0.640625 -0.015625 Z M 0.234375 0 "/></g></g><g transform="translate(26.909312, 28.836724)"><g><path d="M 0.03125 -1.390625 C 0.125 -1.429688 0.203125 -1.484375 0.265625 -1.546875 C 0.328125 -1.609375 0.359375 -1.675781 0.359375 -1.75 C 0.285156 -1.75 0.226562 -1.769531 0.1875 -1.8125 C 0.144531 -1.851562 0.125 -1.910156 0.125 -1.984375 C 0.125 -2.023438 0.132812 -2.0625 0.15625 -2.09375 C 0.175781 -2.132812 0.203125 -2.164062 0.234375 -2.1875 C 0.273438 -2.207031 0.320312 -2.21875 0.375 -2.21875 C 0.457031 -2.226562 0.519531 -2.207031 0.5625 -2.15625 C 0.613281 -2.101562 0.640625 -2.023438 0.640625 -1.921875 C 0.640625 -1.765625 0.597656 -1.625 0.515625 -1.5 C 0.429688 -1.382812 0.316406 -1.285156 0.171875 -1.203125 Z M 0.03125 -1.390625 "/></g></g><g transform="translate(27.719485, 28.822498)"><g><path d="M 0.75 0.015625 C 0.644531 0.015625 0.546875 0.00390625 0.453125 -0.015625 C 0.359375 -0.0351562 0.28125 -0.0664062 0.21875 -0.109375 C 0.15625 -0.160156 0.109375 -0.210938 0.078125 -0.265625 L 0.28125 -0.515625 L 0.3125 -0.515625 C 0.375 -0.441406 0.441406 -0.390625 0.515625 -0.359375 C 0.585938 -0.328125 0.664062 -0.3125 0.75 -0.3125 C 0.832031 -0.3125 0.894531 -0.320312 0.9375 -0.34375 C 0.976562 -0.375 0.992188 -0.414062 0.984375 -0.46875 C 0.984375 -0.507812 0.96875 -0.546875 0.9375 -0.578125 C 0.90625 -0.609375 0.859375 -0.628906 0.796875 -0.640625 L 0.578125 -0.6875 C 0.421875 -0.71875 0.304688 -0.769531 0.234375 -0.84375 C 0.160156 -0.925781 0.125 -1.03125 0.125 -1.15625 C 0.125 -1.25 0.144531 -1.332031 0.1875 -1.40625 C 0.238281 -1.476562 0.304688 -1.535156 0.390625 -1.578125 C 0.484375 -1.628906 0.59375 -1.65625 0.71875 -1.65625 C 0.863281 -1.65625 0.984375 -1.632812 1.078125 -1.59375 C 1.171875 -1.550781 1.25 -1.5 1.3125 -1.4375 L 1.109375 -1.1875 L 1.078125 -1.1875 C 1.035156 -1.238281 0.984375 -1.273438 0.921875 -1.296875 C 0.867188 -1.316406 0.804688 -1.328125 0.734375 -1.328125 C 0.578125 -1.328125 0.5 -1.28125 0.5 -1.1875 C 0.5 -1.144531 0.515625 -1.109375 0.546875 -1.078125 C 0.578125 -1.054688 0.628906 -1.035156 0.703125 -1.015625 L 0.90625 -0.984375 C 1.0625 -0.941406 1.175781 -0.882812 1.25 -0.8125 C 1.332031 -0.738281 1.375 -0.640625 1.375 -0.515625 C 1.382812 -0.410156 1.363281 -0.316406 1.3125 -0.234375 C 1.257812 -0.148438 1.1875 -0.0859375 1.09375 -0.046875 C 1 -0.00390625 0.882812 0.015625 0.75 0.015625 Z M 0.75 0.015625 "/></g></g></g><g fill="#000000" fill-opacity="1"><g transform="translate(14.404986, 33.036498)"><g/></g></g><g fill="#000000" fill-opacity="1"><g transform="translate(15.112188, 33.02408)"><g><path d="M 1.59375 -2.15625 L 1.59375 -1.8125 L 0.671875 -1.796875 L 0.6875 -1.234375 L 1.53125 -1.25 L 1.53125 -0.890625 L 0.6875 -0.875 L 0.703125 -0.015625 L 0.28125 0 L 0.25 -2.125 Z M 1.59375 -2.15625 "/></g></g><g transform="translate(16.834533, 32.993837)"><g><path d="M 0.9375 0.015625 C 0.78125 0.015625 0.640625 -0.0078125 0.515625 -0.0625 C 0.398438 -0.125 0.304688 -0.21875 0.234375 -0.34375 C 0.160156 -0.46875 0.125 -0.617188 0.125 -0.796875 C 0.125 -0.972656 0.15625 -1.125 0.21875 -1.25 C 0.28125 -1.375 0.367188 -1.472656 0.484375 -1.546875 C 0.609375 -1.617188 0.75 -1.65625 0.90625 -1.65625 C 1.0625 -1.65625 1.195312 -1.625 1.3125 -1.5625 C 1.4375 -1.5 1.53125 -1.40625 1.59375 -1.28125 C 1.664062 -1.15625 1.703125 -1.003906 1.703125 -0.828125 C 1.703125 -0.648438 1.671875 -0.5 1.609375 -0.375 C 1.554688 -0.25 1.46875 -0.148438 1.34375 -0.078125 C 1.226562 -0.015625 1.09375 0.015625 0.9375 0.015625 Z M 0.9375 -0.328125 C 1.1875 -0.328125 1.304688 -0.488281 1.296875 -0.8125 C 1.296875 -0.988281 1.257812 -1.113281 1.1875 -1.1875 C 1.125 -1.269531 1.035156 -1.3125 0.921875 -1.3125 C 0.671875 -1.3125 0.546875 -1.144531 0.546875 -0.8125 C 0.554688 -0.488281 0.6875 -0.328125 0.9375 -0.328125 Z M 0.9375 -0.328125 "/></g></g><g transform="translate(18.702594, 32.961035)"><g><path d="M 0.9375 0.015625 C 0.78125 0.015625 0.640625 -0.0078125 0.515625 -0.0625 C 0.398438 -0.125 0.304688 -0.21875 0.234375 -0.34375 C 0.160156 -0.46875 0.125 -0.617188 0.125 -0.796875 C 0.125 -0.972656 0.15625 -1.125 0.21875 -1.25 C 0.28125 -1.375 0.367188 -1.472656 0.484375 -1.546875 C 0.609375 -1.617188 0.75 -1.65625 0.90625 -1.65625 C 1.0625 -1.65625 1.195312 -1.625 1.3125 -1.5625 C 1.4375 -1.5 1.53125 -1.40625 1.59375 -1.28125 C 1.664062 -1.15625 1.703125 -1.003906 1.703125 -0.828125 C 1.703125 -0.648438 1.671875 -0.5 1.609375 -0.375 C 1.554688 -0.25 1.46875 -0.148438 1.34375 -0.078125 C 1.226562 -0.015625 1.09375 0.015625 0.9375 0.015625 Z M 0.9375 -0.328125 C 1.1875 -0.328125 1.304688 -0.488281 1.296875 -0.8125 C 1.296875 -0.988281 1.257812 -1.113281 1.1875 -1.1875 C 1.125 -1.269531 1.035156 -1.3125 0.921875 -1.3125 C 0.671875 -1.3125 0.546875 -1.144531 0.546875 -0.8125 C 0.554688 -0.488281 0.6875 -0.328125 0.9375 -0.328125 Z M 0.9375 -0.328125 "/></g></g><g transform="translate(20.570654, 32.928233)"><g><path d="M 1.109375 -0.40625 L 1.21875 -0.09375 C 1.164062 -0.0625 1.109375 -0.0351562 1.046875 -0.015625 C 0.984375 0.00390625 0.910156 0.015625 0.828125 0.015625 C 0.648438 0.015625 0.515625 -0.0234375 0.421875 -0.109375 C 0.335938 -0.203125 0.289062 -0.34375 0.28125 -0.53125 L 0.28125 -1.28125 L 0.03125 -1.28125 L 0.015625 -1.609375 L 0.265625 -1.609375 L 0.265625 -1.921875 L 0.671875 -2 L 0.671875 -1.625 L 1.125 -1.625 L 1.140625 -1.296875 L 0.6875 -1.296875 L 0.6875 -0.5625 C 0.695312 -0.488281 0.71875 -0.429688 0.75 -0.390625 C 0.78125 -0.359375 0.828125 -0.34375 0.890625 -0.34375 C 0.960938 -0.34375 1.023438 -0.363281 1.078125 -0.40625 Z M 1.109375 -0.40625 "/></g></g><g transform="translate(21.819428, 32.906305)"><g><path d="M 0.25 0.65625 L 0.203125 -1.609375 L 0.609375 -1.625 L 0.609375 -1.40625 L 0.640625 -1.40625 C 0.679688 -1.488281 0.738281 -1.550781 0.8125 -1.59375 C 0.894531 -1.632812 0.992188 -1.65625 1.109375 -1.65625 C 1.234375 -1.65625 1.34375 -1.625 1.4375 -1.5625 C 1.539062 -1.507812 1.617188 -1.421875 1.671875 -1.296875 C 1.734375 -1.171875 1.765625 -1.015625 1.765625 -0.828125 C 1.765625 -0.648438 1.738281 -0.5 1.6875 -0.375 C 1.632812 -0.25 1.554688 -0.148438 1.453125 -0.078125 C 1.359375 -0.015625 1.242188 0.015625 1.109375 0.015625 C 1.003906 0.015625 0.914062 0 0.84375 -0.03125 C 0.769531 -0.0625 0.710938 -0.113281 0.671875 -0.1875 L 0.640625 -0.1875 L 0.65625 0.640625 Z M 1 -0.328125 C 1.113281 -0.328125 1.195312 -0.367188 1.25 -0.453125 C 1.3125 -0.535156 1.34375 -0.660156 1.34375 -0.828125 C 1.34375 -1.003906 1.3125 -1.128906 1.25 -1.203125 C 1.1875 -1.273438 1.097656 -1.3125 0.984375 -1.3125 C 0.867188 -1.3125 0.773438 -1.269531 0.703125 -1.1875 C 0.640625 -1.101562 0.609375 -0.976562 0.609375 -0.8125 C 0.609375 -0.65625 0.644531 -0.535156 0.71875 -0.453125 C 0.789062 -0.367188 0.882812 -0.328125 1 -0.328125 Z M 1 -0.328125 "/></g></g><g transform="translate(23.744317, 32.872505)"><g><path d="M 0.234375 0 L 0.203125 -1.609375 L 0.59375 -1.625 L 0.59375 -1.390625 L 0.625 -1.375 C 0.664062 -1.46875 0.71875 -1.535156 0.78125 -1.578125 C 0.84375 -1.617188 0.914062 -1.640625 1 -1.640625 C 1.09375 -1.640625 1.164062 -1.625 1.21875 -1.59375 L 1.15625 -1.25 L 1.125 -1.234375 C 1.101562 -1.242188 1.078125 -1.25 1.046875 -1.25 C 1.023438 -1.257812 1 -1.265625 0.96875 -1.265625 C 0.851562 -1.265625 0.765625 -1.222656 0.703125 -1.140625 C 0.648438 -1.066406 0.625 -0.941406 0.625 -0.765625 L 0.640625 -0.015625 Z M 0.234375 0 "/></g></g><g transform="translate(25.004748, 32.850373)"><g><path d="M 0.40625 -1.796875 C 0.332031 -1.796875 0.269531 -1.816406 0.21875 -1.859375 C 0.175781 -1.910156 0.15625 -1.96875 0.15625 -2.03125 C 0.15625 -2.101562 0.175781 -2.160156 0.21875 -2.203125 C 0.257812 -2.242188 0.316406 -2.265625 0.390625 -2.265625 C 0.429688 -2.273438 0.472656 -2.269531 0.515625 -2.25 C 0.566406 -2.238281 0.601562 -2.210938 0.625 -2.171875 C 0.644531 -2.140625 0.65625 -2.097656 0.65625 -2.046875 C 0.65625 -2.003906 0.644531 -1.960938 0.625 -1.921875 C 0.601562 -1.890625 0.570312 -1.863281 0.53125 -1.84375 C 0.488281 -1.820312 0.445312 -1.804688 0.40625 -1.796875 Z M 0.234375 0 L 0.203125 -1.609375 L 0.609375 -1.625 L 0.640625 -0.015625 Z M 0.234375 0 "/></g></g><g transform="translate(25.870292, 32.835174)"><g><path d="M 0.234375 0 L 0.203125 -1.609375 L 0.59375 -1.625 L 0.59375 -1.390625 L 0.625 -1.375 C 0.71875 -1.5625 0.878906 -1.65625 1.109375 -1.65625 C 1.296875 -1.664062 1.429688 -1.617188 1.515625 -1.515625 C 1.609375 -1.410156 1.65625 -1.265625 1.65625 -1.078125 L 1.671875 -0.03125 L 1.265625 -0.015625 L 1.25 -1.015625 C 1.25 -1.117188 1.226562 -1.191406 1.1875 -1.234375 C 1.144531 -1.285156 1.078125 -1.3125 0.984375 -1.3125 C 0.867188 -1.3125 0.78125 -1.273438 0.71875 -1.203125 C 0.65625 -1.128906 0.625 -1.007812 0.625 -0.84375 L 0.640625 -0.015625 Z M 0.234375 0 "/></g></g><g transform="translate(27.752924, 32.802117)"><g><path d="M 1.109375 -0.40625 L 1.21875 -0.09375 C 1.164062 -0.0625 1.109375 -0.0351562 1.046875 -0.015625 C 0.984375 0.00390625 0.910156 0.015625 0.828125 0.015625 C 0.648438 0.015625 0.515625 -0.0234375 0.421875 -0.109375 C 0.335938 -0.203125 0.289062 -0.34375 0.28125 -0.53125 L 0.28125 -1.28125 L 0.03125 -1.28125 L 0.015625 -1.609375 L 0.265625 -1.609375 L 0.265625 -1.921875 L 0.671875 -2 L 0.671875 -1.625 L 1.125 -1.625 L 1.140625 -1.296875 L 0.6875 -1.296875 L 0.6875 -0.5625 C 0.695312 -0.488281 0.71875 -0.429688 0.75 -0.390625 C 0.78125 -0.359375 0.828125 -0.34375 0.890625 -0.34375 C 0.960938 -0.34375 1.023438 -0.363281 1.078125 -0.40625 Z M 1.109375 -0.40625 "/></g></g><g transform="translate(29.001698, 32.780189)"><g><path d="M 0.75 0.015625 C 0.644531 0.015625 0.546875 0.00390625 0.453125 -0.015625 C 0.359375 -0.0351562 0.28125 -0.0664062 0.21875 -0.109375 C 0.15625 -0.160156 0.109375 -0.210938 0.078125 -0.265625 L 0.28125 -0.515625 L 0.3125 -0.515625 C 0.375 -0.441406 0.441406 -0.390625 0.515625 -0.359375 C 0.585938 -0.328125 0.664062 -0.3125 0.75 -0.3125 C 0.832031 -0.3125 0.894531 -0.320312 0.9375 -0.34375 C 0.976562 -0.375 0.992188 -0.414062 0.984375 -0.46875 C 0.984375 -0.507812 0.96875 -0.546875 0.9375 -0.578125 C 0.90625 -0.609375 0.859375 -0.628906 0.796875 -0.640625 L 0.578125 -0.6875 C 0.421875 -0.71875 0.304688 -0.769531 0.234375 -0.84375 C 0.160156 -0.925781 0.125 -1.03125 0.125 -1.15625 C 0.125 -1.25 0.144531 -1.332031 0.1875 -1.40625 C 0.238281 -1.476562 0.304688 -1.535156 0.390625 -1.578125 C 0.484375 -1.628906 0.59375 -1.65625 0.71875 -1.65625 C 0.863281 -1.65625 0.984375 -1.632812 1.078125 -1.59375 C 1.171875 -1.550781 1.25 -1.5 1.3125 -1.4375 L 1.109375 -1.1875 L 1.078125 -1.1875 C 1.035156 -1.238281 0.984375 -1.273438 0.921875 -1.296875 C 0.867188 -1.316406 0.804688 -1.328125 0.734375 -1.328125 C 0.578125 -1.328125 0.5 -1.28125 0.5 -1.1875 C 0.5 -1.144531 0.515625 -1.109375 0.546875 -1.078125 C 0.578125 -1.054688 0.628906 -1.035156 0.703125 -1.015625 L 0.90625 -0.984375 C 1.0625 -0.941406 1.175781 -0.882812 1.25 -0.8125 C 1.332031 -0.738281 1.375 -0.640625 1.375 -0.515625 C 1.382812 -0.410156 1.363281 -0.316406 1.3125 -0.234375 C 1.257812 -0.148438 1.1875 -0.0859375 1.09375 -0.046875 C 1 -0.00390625 0.882812 0.015625 0.75 0.015625 Z M 0.75 0.015625 "/></g></g></g><g clip-path="url(#8d59bab097)"><path fill="#1c0072" d="M 44.511719 43.570312 L 42.460938 25.128906 C 42.457031 25.101562 42.429688 25.078125 42.398438 25.078125 L 38.820312 25.078125 L 38.820312 22.039062 C 38.820312 20.496094 37.5625 19.242188 36.019531 19.242188 C 35.734375 19.242188 35.453125 19.285156 35.191406 19.367188 C 34.929688 19.285156 34.652344 19.242188 34.363281 19.242188 C 32.820312 19.242188 31.5625 20.496094 31.5625 22.039062 L 31.5625 25.078125 L 27.234375 25.078125 C 27.203125 25.078125 27.179688 25.101562 27.175781 25.128906 L 25.125 43.570312 C 25.125 43.570312 25.125 43.570312 25.125 43.574219 C 25.125 43.574219 25.125 43.574219 25.125 43.578125 C 25.125 43.582031 25.125 43.589844 25.128906 43.597656 C 25.132812 43.605469 25.136719 43.613281 25.140625 43.617188 C 25.148438 43.625 25.152344 43.628906 25.160156 43.632812 C 25.160156 43.632812 25.160156 43.632812 25.164062 43.632812 C 25.167969 43.636719 25.175781 43.636719 25.183594 43.636719 L 44.449219 43.636719 C 44.464844 43.636719 44.484375 43.628906 44.496094 43.617188 C 44.507812 43.605469 44.511719 43.585938 44.511719 43.570312 Z M 34.3125 19.828125 C 33.648438 20.339844 33.222656 21.140625 33.222656 22.039062 L 33.222656 25.078125 L 32.148438 25.078125 L 32.148438 22.039062 C 32.148438 20.835938 33.113281 19.855469 34.3125 19.828125 Z M 38.234375 22.039062 L 38.234375 25.078125 L 37.160156 25.078125 L 37.160156 22.039062 C 37.160156 21.140625 36.734375 20.339844 36.074219 19.828125 C 37.269531 19.855469 38.234375 20.835938 38.234375 22.039062 Z M 36.574219 22.039062 L 36.574219 25.078125 L 33.808594 25.078125 L 33.808594 22.039062 C 33.808594 21.113281 34.382812 20.316406 35.191406 19.988281 C 36 20.316406 36.574219 21.113281 36.574219 22.039062 Z M 36.574219 22.039062 " fill-opacity="1" fill-rule="nonzero"/></g><g clip-path="url(#85d90e0fd2)"><path fill="#ffbd59" d="M 25.335938 43.515625 L 28.109375 40.820312 L 30.886719 43.515625 Z M 28.171875 40.710938 L 30.957031 43.414062 L 28.929688 25.199219 L 28.171875 25.199219 Z M 28.050781 40.710938 L 28.050781 25.199219 L 27.289062 25.199219 L 25.265625 43.414062 Z M 28.050781 40.710938 " fill-opacity="1" fill-rule="nonzero"/></g><g clip-path="url(#a25b0f2faf)"><path fill="#ffde59" d="M 33.222656 25.199219 L 33.222656 26.683594 C 33.222656 26.84375 33.355469 26.976562 33.515625 26.976562 C 33.675781 26.976562 33.808594 26.84375 33.808594 26.683594 L 33.808594 25.199219 L 38.234375 25.199219 L 38.234375 26.683594 C 38.234375 26.84375 38.367188 26.976562 38.527344 26.976562 C 38.6875 26.976562 38.820312 26.84375 38.820312 26.683594 L 38.820312 25.199219 L 39.359375 25.199219 L 40.292969 26.777344 L 40.140625 28.25 C 40.140625 28.261719 40.140625 28.277344 40.148438 28.285156 L 41.164062 30.089844 C 41.171875 30.101562 41.183594 30.113281 41.199219 30.117188 C 41.207031 30.121094 41.210938 30.121094 41.214844 30.121094 C 41.226562 30.121094 41.238281 30.117188 41.246094 30.113281 L 42.757812 29.261719 C 42.773438 29.253906 42.78125 29.238281 42.785156 29.222656 C 42.792969 29.207031 42.789062 29.191406 42.78125 29.175781 L 41.765625 27.375 C 41.757812 27.363281 41.75 27.355469 41.738281 27.351562 L 40.398438 26.71875 L 39.5 25.199219 L 42.34375 25.199219 L 44.066406 40.675781 L 30.773438 40.675781 L 29.054688 25.199219 Z M 30.789062 40.796875 L 31.089844 43.515625 L 44.382812 43.515625 L 44.078125 40.796875 Z M 30.789062 40.796875 " fill-opacity="1" fill-rule="nonzero"/></g><g clip-path="url(#95b5013c6c)"><path fill="#1c0072" d="M 44.511719 43.570312 L 42.460938 25.128906 C 42.457031 25.101562 42.429688 25.078125 42.398438 25.078125 L 38.820312 25.078125 L 38.820312 22.039062 C 38.820312 20.496094 37.5625 19.242188 36.019531 19.242188 C 35.734375 19.242188 35.453125 19.285156 35.191406 19.367188 C 34.929688 19.285156 34.652344 19.242188 34.363281 19.242188 C 32.820312 19.242188 31.5625 20.496094 31.5625 22.039062 L 31.5625 25.078125 L 27.234375 25.078125 C 27.203125 25.078125 27.179688 25.101562 27.175781 25.128906 L 25.125 43.570312 C 25.125 43.570312 25.125 43.570312 25.125 43.574219 C 25.125 43.574219 25.125 43.574219 25.125 43.578125 C 25.125 43.582031 25.125 43.589844 25.128906 43.597656 C 25.132812 43.605469 25.136719 43.613281 25.140625 43.617188 C 25.140625 43.617188 25.140625 43.617188 25.140625 43.621094 C 25.148438 43.625 25.152344 43.628906 25.160156 43.632812 C 25.160156 43.632812 25.160156 43.632812 25.164062 43.632812 C 25.167969 43.636719 25.175781 43.636719 25.183594 43.636719 L 44.449219 43.636719 C 44.464844 43.636719 44.484375 43.628906 44.496094 43.617188 C 44.507812 43.605469 44.511719 43.585938 44.511719 43.570312 Z M 34.363281 19.363281 C 34.578125 19.363281 34.789062 19.390625 34.992188 19.4375 C 34.808594 19.511719 34.636719 19.601562 34.476562 19.707031 C 34.4375 19.707031 34.402344 19.707031 34.363281 19.707031 C 33.074219 19.707031 32.027344 20.753906 32.027344 22.039062 L 32.027344 25.078125 L 31.6875 25.078125 L 31.6875 22.039062 C 31.683594 20.5625 32.886719 19.363281 34.363281 19.363281 Z M 38.699219 26.683594 C 38.699219 26.777344 38.621094 26.855469 38.527344 26.855469 C 38.433594 26.855469 38.355469 26.777344 38.355469 26.683594 L 38.355469 22.039062 C 38.355469 20.753906 37.308594 19.707031 36.019531 19.707031 C 34.734375 19.707031 33.6875 20.753906 33.6875 22.039062 L 33.6875 26.683594 C 33.6875 26.777344 33.609375 26.855469 33.515625 26.855469 C 33.421875 26.855469 33.34375 26.777344 33.34375 26.683594 L 33.34375 22.039062 C 33.34375 20.5625 34.546875 19.363281 36.019531 19.363281 C 37.496094 19.363281 38.699219 20.5625 38.699219 22.039062 Z M 33.222656 25.078125 L 32.148438 25.078125 L 32.148438 22.039062 C 32.148438 20.835938 33.113281 19.855469 34.3125 19.828125 C 33.648438 20.339844 33.222656 21.140625 33.222656 22.039062 Z M 36.574219 22.039062 L 36.574219 25.078125 L 33.808594 25.078125 L 33.808594 22.039062 C 33.808594 21.113281 34.382812 20.316406 35.191406 19.988281 C 36 20.316406 36.574219 21.113281 36.574219 22.039062 Z M 35.355469 19.929688 C 35.523438 19.875 35.695312 19.84375 35.871094 19.832031 C 36.574219 20.316406 37.039062 21.125 37.039062 22.039062 L 37.039062 25.078125 L 36.695312 25.078125 L 36.695312 22.039062 C 36.695312 21.109375 36.148438 20.304688 35.355469 19.929688 Z M 36.074219 19.828125 C 37.269531 19.855469 38.234375 20.835938 38.234375 22.039062 L 38.234375 25.078125 L 37.160156 25.078125 L 37.160156 22.039062 C 37.160156 21.140625 36.734375 20.339844 36.074219 19.828125 Z M 33.222656 25.199219 L 33.222656 26.683594 C 33.222656 26.84375 33.355469 26.976562 33.515625 26.976562 C 33.675781 26.976562 33.808594 26.84375 33.808594 26.683594 L 33.808594 25.199219 L 38.234375 25.199219 L 38.234375 26.683594 C 38.234375 26.84375 38.367188 26.976562 38.527344 26.976562 C 38.6875 26.976562 38.820312 26.84375 38.820312 26.683594 L 38.820312 25.199219 L 39.359375 25.199219 L 40.292969 26.777344 L 40.140625 28.25 C 40.140625 28.261719 40.140625 28.277344 40.148438 28.285156 L 41.164062 30.089844 C 41.171875 30.101562 41.183594 30.113281 41.199219 30.117188 C 41.207031 30.121094 41.210938 30.121094 41.214844 30.121094 C 41.226562 30.121094 41.238281 30.117188 41.246094 30.113281 L 42.757812 29.261719 C 42.773438 29.253906 42.78125 29.238281 42.785156 29.222656 C 42.792969 29.207031 42.789062 29.191406 42.78125 29.175781 L 41.765625 27.375 C 41.757812 27.363281 41.75 27.355469 41.738281 27.351562 L 40.398438 26.71875 L 39.5 25.199219 L 42.34375 25.199219 L 44.066406 40.675781 L 30.773438 40.675781 L 29.054688 25.199219 Z M 40.40625 26.855469 L 41.667969 27.453125 L 42.644531 29.183594 L 41.238281 29.976562 L 40.261719 28.246094 Z M 28.929688 25.199219 L 30.957031 43.414062 L 28.171875 40.710938 L 28.171875 25.199219 Z M 28.109375 40.820312 L 30.886719 43.515625 L 25.335938 43.515625 Z M 28.050781 25.199219 L 28.050781 40.710938 L 25.265625 43.414062 L 27.289062 25.199219 Z M 31.089844 43.515625 L 30.789062 40.796875 L 44.078125 40.796875 L 44.382812 43.515625 Z M 31.089844 43.515625 " fill-opacity="1" fill-rule="nonzero"/></g><g clip-path="url(#49ce69a015)"><path fill="#f9ede0" d="M 36.695312 25.078125 L 36.695312 22.039062 C 36.695312 21.109375 36.148438 20.304688 35.355469 19.929688 C 35.523438 19.875 35.695312 19.84375 35.871094 19.832031 C 36.574219 20.316406 37.039062 21.125 37.039062 22.039062 L 37.039062 25.078125 Z M 31.683594 25.078125 L 32.027344 25.078125 L 32.027344 22.039062 C 32.027344 20.753906 33.074219 19.707031 34.363281 19.707031 C 34.402344 19.707031 34.4375 19.707031 34.476562 19.707031 C 34.636719 19.601562 34.808594 19.511719 34.992188 19.4375 C 34.789062 19.390625 34.578125 19.363281 34.363281 19.363281 C 32.886719 19.363281 31.683594 20.5625 31.683594 22.039062 Z M 36.019531 19.363281 C 34.546875 19.363281 33.34375 20.5625 33.34375 22.039062 L 33.34375 26.683594 C 33.34375 26.777344 33.421875 26.855469 33.515625 26.855469 C 33.609375 26.855469 33.6875 26.777344 33.6875 26.683594 L 33.6875 22.039062 C 33.6875 20.753906 34.734375 19.707031 36.019531 19.707031 C 37.308594 19.707031 38.355469 20.753906 38.355469 22.039062 L 38.355469 26.683594 C 38.355469 26.777344 38.433594 26.855469 38.527344 26.855469 C 38.621094 26.855469 38.699219 26.777344 38.699219 26.683594 L 38.699219 22.039062 C 38.699219 20.5625 37.496094 19.363281 36.019531 19.363281 Z M 36.019531 19.363281 " fill-opacity="1" fill-rule="nonzero"/></g><path fill="#ffffff" d="M 40.261719 28.246094 L 40.40625 26.855469 L 41.667969 27.453125 L 42.644531 29.183594 L 41.238281 29.976562 Z M 40.261719 28.246094 " fill-opacity="1" fill-rule="nonzero"/><g fill="#000000" fill-opacity="1"><g transform="translate(32.236397, 33.688292)"><g><path d="M 0.1875 0 L 0.140625 -1.421875 L 0.421875 -1.4375 L 0.4375 -0.859375 L 0.46875 -0.859375 L 0.921875 -1.453125 L 1.203125 -1.46875 L 1.203125 -1.4375 L 0.703125 -0.78125 L 1.3125 -0.078125 L 1.3125 -0.046875 L 1 -0.03125 L 0.484375 -0.625 L 0.453125 -0.625 L 0.46875 -0.015625 Z M 0.1875 0 "/></g></g><g transform="translate(33.548322, 33.646063)"><g><path d="M 0.421875 0 C 0.347656 0 0.285156 -0.0078125 0.234375 -0.03125 C 0.179688 -0.0507812 0.140625 -0.0820312 0.109375 -0.125 C 0.0859375 -0.175781 0.0703125 -0.234375 0.0625 -0.296875 C 0.0625 -0.367188 0.0703125 -0.425781 0.09375 -0.46875 C 0.125 -0.507812 0.164062 -0.546875 0.21875 -0.578125 C 0.28125 -0.609375 0.359375 -0.628906 0.453125 -0.640625 C 0.515625 -0.648438 0.5625 -0.660156 0.59375 -0.671875 C 0.632812 -0.691406 0.65625 -0.707031 0.65625 -0.71875 C 0.664062 -0.738281 0.671875 -0.757812 0.671875 -0.78125 C 0.671875 -0.8125 0.65625 -0.835938 0.625 -0.859375 C 0.601562 -0.878906 0.566406 -0.890625 0.515625 -0.890625 C 0.453125 -0.890625 0.394531 -0.875 0.34375 -0.84375 C 0.289062 -0.820312 0.242188 -0.785156 0.203125 -0.734375 L 0.1875 -0.734375 L 0.078125 -0.890625 C 0.128906 -0.953125 0.191406 -1.003906 0.265625 -1.046875 C 0.347656 -1.085938 0.4375 -1.109375 0.53125 -1.109375 C 0.664062 -1.117188 0.765625 -1.09375 0.828125 -1.03125 C 0.898438 -0.96875 0.9375 -0.882812 0.9375 -0.78125 L 0.953125 -0.3125 C 0.960938 -0.257812 0.988281 -0.234375 1.03125 -0.234375 C 1.039062 -0.234375 1.054688 -0.238281 1.078125 -0.25 L 1.09375 -0.25 L 1.109375 -0.0625 C 1.085938 -0.0507812 1.0625 -0.0390625 1.03125 -0.03125 C 1.007812 -0.03125 0.984375 -0.03125 0.953125 -0.03125 C 0.890625 -0.03125 0.835938 -0.0390625 0.796875 -0.0625 C 0.765625 -0.0820312 0.742188 -0.117188 0.734375 -0.171875 L 0.703125 -0.15625 C 0.648438 -0.0507812 0.554688 0 0.421875 0 Z M 0.5 -0.203125 C 0.5625 -0.203125 0.609375 -0.222656 0.640625 -0.265625 C 0.671875 -0.304688 0.6875 -0.363281 0.6875 -0.4375 L 0.6875 -0.546875 L 0.671875 -0.546875 C 0.648438 -0.535156 0.625 -0.523438 0.59375 -0.515625 C 0.570312 -0.503906 0.539062 -0.492188 0.5 -0.484375 C 0.4375 -0.472656 0.390625 -0.457031 0.359375 -0.4375 C 0.335938 -0.414062 0.328125 -0.382812 0.328125 -0.34375 C 0.328125 -0.289062 0.34375 -0.253906 0.375 -0.234375 C 0.40625 -0.210938 0.445312 -0.203125 0.5 -0.203125 Z M 0.5 -0.203125 "/></g></g><g transform="translate(34.677684, 33.609711)"><g><path d="M 0.484375 0 C 0.367188 0 0.28125 -0.0234375 0.21875 -0.078125 C 0.164062 -0.140625 0.132812 -0.234375 0.125 -0.359375 L 0.109375 -1.0625 L 0.375 -1.078125 L 0.390625 -0.40625 C 0.390625 -0.34375 0.40625 -0.296875 0.4375 -0.265625 C 0.46875 -0.234375 0.515625 -0.21875 0.578125 -0.21875 C 0.648438 -0.21875 0.703125 -0.242188 0.734375 -0.296875 C 0.773438 -0.359375 0.796875 -0.441406 0.796875 -0.546875 L 0.78125 -1.09375 L 1.046875 -1.09375 L 1.078125 -0.03125 L 0.828125 -0.03125 L 0.828125 -0.1875 L 0.796875 -0.1875 C 0.765625 -0.125 0.722656 -0.078125 0.671875 -0.046875 C 0.628906 -0.015625 0.566406 0 0.484375 0 Z M 0.484375 0 "/></g></g><g transform="translate(35.916779, 33.569827)"><g><path d="M 0.5 0 C 0.425781 0 0.359375 -0.00390625 0.296875 -0.015625 C 0.234375 -0.0234375 0.179688 -0.046875 0.140625 -0.078125 C 0.0976562 -0.109375 0.0664062 -0.140625 0.046875 -0.171875 L 0.1875 -0.34375 L 0.203125 -0.34375 C 0.234375 -0.300781 0.273438 -0.269531 0.328125 -0.25 C 0.390625 -0.226562 0.445312 -0.21875 0.5 -0.21875 C 0.550781 -0.21875 0.585938 -0.222656 0.609375 -0.234375 C 0.628906 -0.253906 0.640625 -0.285156 0.640625 -0.328125 C 0.640625 -0.347656 0.628906 -0.367188 0.609375 -0.390625 C 0.597656 -0.410156 0.566406 -0.425781 0.515625 -0.4375 L 0.375 -0.46875 C 0.269531 -0.476562 0.191406 -0.507812 0.140625 -0.5625 C 0.0976562 -0.613281 0.0703125 -0.679688 0.0625 -0.765625 C 0.0625 -0.828125 0.078125 -0.882812 0.109375 -0.9375 C 0.140625 -0.988281 0.1875 -1.03125 0.25 -1.0625 C 0.3125 -1.09375 0.382812 -1.109375 0.46875 -1.109375 C 0.5625 -1.109375 0.640625 -1.09375 0.703125 -1.0625 C 0.773438 -1.039062 0.828125 -1.007812 0.859375 -0.96875 L 0.71875 -0.8125 L 0.703125 -0.8125 C 0.671875 -0.832031 0.632812 -0.847656 0.59375 -0.859375 C 0.5625 -0.878906 0.519531 -0.890625 0.46875 -0.890625 C 0.363281 -0.890625 0.3125 -0.859375 0.3125 -0.796875 C 0.3125 -0.765625 0.320312 -0.738281 0.34375 -0.71875 C 0.375 -0.707031 0.414062 -0.695312 0.46875 -0.6875 L 0.59375 -0.65625 C 0.695312 -0.644531 0.773438 -0.613281 0.828125 -0.5625 C 0.878906 -0.507812 0.90625 -0.441406 0.90625 -0.359375 C 0.914062 -0.285156 0.90625 -0.222656 0.875 -0.171875 C 0.84375 -0.117188 0.789062 -0.078125 0.71875 -0.046875 C 0.65625 -0.015625 0.582031 0 0.5 0 Z M 0.5 0 "/></g></g><g transform="translate(36.904364, 33.538038)"><g><path d="M 0.15625 0 L 0.109375 -1.5 L 0.375 -1.515625 L 0.390625 -0.9375 L 0.40625 -0.9375 C 0.445312 -0.988281 0.492188 -1.03125 0.546875 -1.0625 C 0.597656 -1.09375 0.660156 -1.113281 0.734375 -1.125 C 0.960938 -1.125 1.082031 -0.988281 1.09375 -0.71875 L 1.109375 -0.03125 L 0.84375 -0.03125 L 0.828125 -0.6875 C 0.816406 -0.757812 0.796875 -0.8125 0.765625 -0.84375 C 0.742188 -0.875 0.703125 -0.882812 0.640625 -0.875 C 0.554688 -0.875 0.492188 -0.847656 0.453125 -0.796875 C 0.421875 -0.753906 0.40625 -0.675781 0.40625 -0.5625 L 0.421875 -0.015625 Z M 0.15625 0 "/></g></g><g transform="translate(38.158996, 33.497653)"><g><path d="M 0.25 -1.21875 C 0.207031 -1.207031 0.164062 -1.210938 0.125 -1.234375 C 0.09375 -1.265625 0.078125 -1.304688 0.078125 -1.359375 C 0.078125 -1.398438 0.09375 -1.4375 0.125 -1.46875 C 0.15625 -1.5 0.191406 -1.519531 0.234375 -1.53125 C 0.273438 -1.53125 0.304688 -1.519531 0.328125 -1.5 C 0.347656 -1.488281 0.363281 -1.472656 0.375 -1.453125 C 0.394531 -1.429688 0.40625 -1.40625 0.40625 -1.375 C 0.40625 -1.34375 0.394531 -1.3125 0.375 -1.28125 C 0.363281 -1.257812 0.347656 -1.242188 0.328125 -1.234375 C 0.316406 -1.222656 0.289062 -1.21875 0.25 -1.21875 Z M 0.15625 0 L 0.125 -1.0625 L 0.390625 -1.078125 L 0.421875 -0.015625 Z M 0.15625 0 "/></g></g><g transform="translate(38.735815, 33.479086)"><g><path d="M 0.15625 0 L 0.109375 -1.5 L 0.375 -1.515625 L 0.40625 -0.6875 L 0.4375 -0.6875 L 0.71875 -1.09375 L 1 -1.09375 L 1 -1.078125 L 0.65625 -0.59375 L 1.078125 -0.0625 L 1.078125 -0.03125 L 0.78125 -0.03125 L 0.4375 -0.46875 L 0.40625 -0.46875 L 0.421875 -0.015625 Z M 0.15625 0 "/></g></g><g transform="translate(39.810798, 33.444484)"><g><path d="M 0.015625 -0.921875 C 0.078125 -0.953125 0.125 -0.988281 0.15625 -1.03125 C 0.195312 -1.082031 0.222656 -1.128906 0.234375 -1.171875 C 0.179688 -1.171875 0.140625 -1.179688 0.109375 -1.203125 C 0.078125 -1.234375 0.0625 -1.269531 0.0625 -1.3125 C 0.0625 -1.34375 0.0664062 -1.367188 0.078125 -1.390625 C 0.0859375 -1.421875 0.101562 -1.441406 0.125 -1.453125 C 0.15625 -1.472656 0.1875 -1.488281 0.21875 -1.5 C 0.269531 -1.5 0.3125 -1.476562 0.34375 -1.4375 C 0.375 -1.40625 0.390625 -1.351562 0.390625 -1.28125 C 0.398438 -1.175781 0.375 -1.082031 0.3125 -1 C 0.257812 -0.925781 0.1875 -0.859375 0.09375 -0.796875 Z M 0.015625 -0.921875 "/></g></g><g transform="translate(40.350717, 33.427105)"><g><path d="M 0.5 0 C 0.425781 0 0.359375 -0.00390625 0.296875 -0.015625 C 0.234375 -0.0234375 0.179688 -0.046875 0.140625 -0.078125 C 0.0976562 -0.109375 0.0664062 -0.140625 0.046875 -0.171875 L 0.1875 -0.34375 L 0.203125 -0.34375 C 0.234375 -0.300781 0.273438 -0.269531 0.328125 -0.25 C 0.390625 -0.226562 0.445312 -0.21875 0.5 -0.21875 C 0.550781 -0.21875 0.585938 -0.222656 0.609375 -0.234375 C 0.628906 -0.253906 0.640625 -0.285156 0.640625 -0.328125 C 0.640625 -0.347656 0.628906 -0.367188 0.609375 -0.390625 C 0.597656 -0.410156 0.566406 -0.425781 0.515625 -0.4375 L 0.375 -0.46875 C 0.269531 -0.476562 0.191406 -0.507812 0.140625 -0.5625 C 0.0976562 -0.613281 0.0703125 -0.679688 0.0625 -0.765625 C 0.0625 -0.828125 0.078125 -0.882812 0.109375 -0.9375 C 0.140625 -0.988281 0.1875 -1.03125 0.25 -1.0625 C 0.3125 -1.09375 0.382812 -1.109375 0.46875 -1.109375 C 0.5625 -1.109375 0.640625 -1.09375 0.703125 -1.0625 C 0.773438 -1.039062 0.828125 -1.007812 0.859375 -0.96875 L 0.71875 -0.8125 L 0.703125 -0.8125 C 0.671875 -0.832031 0.632812 -0.847656 0.59375 -0.859375 C 0.5625 -0.878906 0.519531 -0.890625 0.46875 -0.890625 C 0.363281 -0.890625 0.3125 -0.859375 0.3125 -0.796875 C 0.3125 -0.765625 0.320312 -0.738281 0.34375 -0.71875 C 0.375 -0.707031 0.414062 -0.695312 0.46875 -0.6875 L 0.59375 -0.65625 C 0.695312 -0.644531 0.773438 -0.613281 0.828125 -0.5625 C 0.878906 -0.507812 0.90625 -0.441406 0.90625 -0.359375 C 0.914062 -0.285156 0.90625 -0.222656 0.875 -0.171875 C 0.84375 -0.117188 0.789062 -0.078125 0.71875 -0.046875 C 0.65625 -0.015625 0.582031 0 0.5 0 Z M 0.5 0 "/></g></g></g><g fill="#000000" fill-opacity="1"><g transform="translate(31.513814, 36.365986)"><g/></g></g><g fill="#000000" fill-opacity="1"><g transform="translate(31.98511, 36.350816)"><g><path d="M 1.03125 -1.453125 L 1.046875 -1.21875 L 0.4375 -1.203125 L 0.4375 -0.828125 L 1 -0.84375 L 1.015625 -0.609375 L 0.453125 -0.59375 L 0.46875 -0.015625 L 0.1875 0 L 0.140625 -1.421875 Z M 1.03125 -1.453125 "/></g></g><g transform="translate(33.132923, 36.313869)"><g><path d="M 0.625 0 C 0.519531 0 0.425781 -0.015625 0.34375 -0.046875 C 0.269531 -0.0859375 0.207031 -0.148438 0.15625 -0.234375 C 0.101562 -0.316406 0.078125 -0.414062 0.078125 -0.53125 C 0.078125 -0.644531 0.0976562 -0.742188 0.140625 -0.828125 C 0.179688 -0.910156 0.238281 -0.976562 0.3125 -1.03125 C 0.394531 -1.082031 0.488281 -1.109375 0.59375 -1.109375 C 0.695312 -1.117188 0.785156 -1.097656 0.859375 -1.046875 C 0.941406 -1.003906 1.003906 -0.941406 1.046875 -0.859375 C 1.097656 -0.773438 1.125 -0.675781 1.125 -0.5625 C 1.125 -0.445312 1.101562 -0.347656 1.0625 -0.265625 C 1.03125 -0.179688 0.972656 -0.117188 0.890625 -0.078125 C 0.816406 -0.0351562 0.726562 -0.0078125 0.625 0 Z M 0.625 -0.21875 C 0.789062 -0.226562 0.867188 -0.34375 0.859375 -0.5625 C 0.859375 -0.675781 0.832031 -0.757812 0.78125 -0.8125 C 0.738281 -0.863281 0.675781 -0.882812 0.59375 -0.875 C 0.425781 -0.875 0.347656 -0.765625 0.359375 -0.546875 C 0.367188 -0.328125 0.457031 -0.21875 0.625 -0.21875 Z M 0.625 -0.21875 "/></g></g><g transform="translate(34.377844, 36.273797)"><g><path d="M 0.625 0 C 0.519531 0 0.425781 -0.015625 0.34375 -0.046875 C 0.269531 -0.0859375 0.207031 -0.148438 0.15625 -0.234375 C 0.101562 -0.316406 0.078125 -0.414062 0.078125 -0.53125 C 0.078125 -0.644531 0.0976562 -0.742188 0.140625 -0.828125 C 0.179688 -0.910156 0.238281 -0.976562 0.3125 -1.03125 C 0.394531 -1.082031 0.488281 -1.109375 0.59375 -1.109375 C 0.695312 -1.117188 0.785156 -1.097656 0.859375 -1.046875 C 0.941406 -1.003906 1.003906 -0.941406 1.046875 -0.859375 C 1.097656 -0.773438 1.125 -0.675781 1.125 -0.5625 C 1.125 -0.445312 1.101562 -0.347656 1.0625 -0.265625 C 1.03125 -0.179688 0.972656 -0.117188 0.890625 -0.078125 C 0.816406 -0.0351562 0.726562 -0.0078125 0.625 0 Z M 0.625 -0.21875 C 0.789062 -0.226562 0.867188 -0.34375 0.859375 -0.5625 C 0.859375 -0.675781 0.832031 -0.757812 0.78125 -0.8125 C 0.738281 -0.863281 0.675781 -0.882812 0.59375 -0.875 C 0.425781 -0.875 0.347656 -0.765625 0.359375 -0.546875 C 0.367188 -0.328125 0.457031 -0.21875 0.625 -0.21875 Z M 0.625 -0.21875 "/></g></g><g transform="translate(35.622765, 36.233725)"><g><path d="M 0.71875 -0.28125 L 0.8125 -0.09375 C 0.78125 -0.0625 0.738281 -0.0351562 0.6875 -0.015625 C 0.644531 -0.00390625 0.597656 0 0.546875 0 C 0.429688 0 0.34375 -0.0234375 0.28125 -0.078125 C 0.21875 -0.140625 0.179688 -0.226562 0.171875 -0.34375 L 0.15625 -0.859375 L 0 -0.859375 L 0 -1.0625 L 0.15625 -1.0625 L 0.140625 -1.28125 L 0.421875 -1.34375 L 0.4375 -1.078125 L 0.734375 -1.09375 L 0.734375 -0.890625 L 0.4375 -0.875 L 0.453125 -0.390625 C 0.453125 -0.328125 0.460938 -0.285156 0.484375 -0.265625 C 0.515625 -0.242188 0.550781 -0.234375 0.59375 -0.234375 C 0.632812 -0.234375 0.671875 -0.242188 0.703125 -0.265625 Z M 0.71875 -0.28125 "/></g></g><g transform="translate(36.454978, 36.206938)"><g><path d="M 0.171875 0.4375 L 0.125 -1.0625 L 0.390625 -1.078125 L 0.390625 -0.9375 L 0.40625 -0.9375 C 0.4375 -0.988281 0.476562 -1.03125 0.53125 -1.0625 C 0.59375 -1.09375 0.65625 -1.113281 0.71875 -1.125 C 0.8125 -1.125 0.890625 -1.101562 0.953125 -1.0625 C 1.015625 -1.019531 1.066406 -0.957031 1.109375 -0.875 C 1.148438 -0.789062 1.171875 -0.6875 1.171875 -0.5625 C 1.171875 -0.4375 1.15625 -0.332031 1.125 -0.25 C 1.09375 -0.175781 1.039062 -0.117188 0.96875 -0.078125 C 0.90625 -0.0351562 0.828125 -0.015625 0.734375 -0.015625 C 0.671875 -0.00390625 0.613281 -0.0078125 0.5625 -0.03125 C 0.519531 -0.0507812 0.476562 -0.0859375 0.4375 -0.140625 L 0.421875 -0.125 L 0.4375 0.421875 Z M 0.65625 -0.21875 C 0.738281 -0.226562 0.796875 -0.257812 0.828125 -0.3125 C 0.867188 -0.363281 0.890625 -0.445312 0.890625 -0.5625 C 0.890625 -0.675781 0.863281 -0.757812 0.8125 -0.8125 C 0.769531 -0.863281 0.707031 -0.882812 0.625 -0.875 C 0.550781 -0.875 0.492188 -0.847656 0.453125 -0.796875 C 0.421875 -0.742188 0.40625 -0.660156 0.40625 -0.546875 C 0.40625 -0.441406 0.425781 -0.359375 0.46875 -0.296875 C 0.519531 -0.242188 0.582031 -0.21875 0.65625 -0.21875 Z M 0.65625 -0.21875 "/></g></g><g transform="translate(37.737771, 36.165647)"><g><path d="M 0.15625 0 L 0.125 -1.0625 L 0.390625 -1.078125 L 0.390625 -0.921875 L 0.40625 -0.921875 C 0.425781 -0.984375 0.457031 -1.023438 0.5 -1.046875 C 0.539062 -1.078125 0.59375 -1.09375 0.65625 -1.09375 C 0.71875 -1.101562 0.765625 -1.097656 0.796875 -1.078125 L 0.75 -0.84375 L 0.734375 -0.84375 C 0.710938 -0.851562 0.691406 -0.851562 0.671875 -0.84375 C 0.660156 -0.84375 0.644531 -0.84375 0.625 -0.84375 C 0.550781 -0.84375 0.492188 -0.816406 0.453125 -0.765625 C 0.421875 -0.710938 0.40625 -0.628906 0.40625 -0.515625 L 0.421875 -0.015625 Z M 0.15625 0 "/></g></g><g transform="translate(38.577752, 36.138609)"><g><path d="M 0.25 -1.21875 C 0.207031 -1.207031 0.164062 -1.210938 0.125 -1.234375 C 0.09375 -1.265625 0.078125 -1.304688 0.078125 -1.359375 C 0.078125 -1.398438 0.09375 -1.4375 0.125 -1.46875 C 0.15625 -1.5 0.191406 -1.519531 0.234375 -1.53125 C 0.273438 -1.53125 0.304688 -1.519531 0.328125 -1.5 C 0.347656 -1.488281 0.363281 -1.472656 0.375 -1.453125 C 0.394531 -1.429688 0.40625 -1.40625 0.40625 -1.375 C 0.40625 -1.34375 0.394531 -1.3125 0.375 -1.28125 C 0.363281 -1.257812 0.347656 -1.242188 0.328125 -1.234375 C 0.316406 -1.222656 0.289062 -1.21875 0.25 -1.21875 Z M 0.15625 0 L 0.125 -1.0625 L 0.390625 -1.078125 L 0.421875 -0.015625 Z M 0.15625 0 "/></g></g><g transform="translate(39.154572, 36.120042)"><g><path d="M 0.15625 0 L 0.125 -1.0625 L 0.375 -1.078125 L 0.375 -0.921875 L 0.40625 -0.921875 C 0.46875 -1.046875 0.570312 -1.113281 0.71875 -1.125 C 0.84375 -1.125 0.929688 -1.085938 0.984375 -1.015625 C 1.046875 -0.953125 1.082031 -0.851562 1.09375 -0.71875 L 1.109375 -0.03125 L 0.84375 -0.03125 L 0.828125 -0.6875 C 0.816406 -0.757812 0.796875 -0.8125 0.765625 -0.84375 C 0.742188 -0.875 0.703125 -0.882812 0.640625 -0.875 C 0.554688 -0.875 0.492188 -0.847656 0.453125 -0.796875 C 0.421875 -0.753906 0.40625 -0.675781 0.40625 -0.5625 L 0.421875 -0.015625 Z M 0.15625 0 "/></g></g><g transform="translate(40.409203, 36.079658)"><g><path d="M 0.71875 -0.28125 L 0.8125 -0.09375 C 0.78125 -0.0625 0.738281 -0.0351562 0.6875 -0.015625 C 0.644531 -0.00390625 0.597656 0 0.546875 0 C 0.429688 0 0.34375 -0.0234375 0.28125 -0.078125 C 0.21875 -0.140625 0.179688 -0.226562 0.171875 -0.34375 L 0.15625 -0.859375 L 0 -0.859375 L 0 -1.0625 L 0.15625 -1.0625 L 0.140625 -1.28125 L 0.421875 -1.34375 L 0.4375 -1.078125 L 0.734375 -1.09375 L 0.734375 -0.890625 L 0.4375 -0.875 L 0.453125 -0.390625 C 0.453125 -0.328125 0.460938 -0.285156 0.484375 -0.265625 C 0.515625 -0.242188 0.550781 -0.234375 0.59375 -0.234375 C 0.632812 -0.234375 0.671875 -0.242188 0.703125 -0.265625 Z M 0.71875 -0.28125 "/></g></g><g transform="translate(41.241417, 36.05287)"><g><path d="M 0.5 0 C 0.425781 0 0.359375 -0.00390625 0.296875 -0.015625 C 0.234375 -0.0234375 0.179688 -0.046875 0.140625 -0.078125 C 0.0976562 -0.109375 0.0664062 -0.140625 0.046875 -0.171875 L 0.1875 -0.34375 L 0.203125 -0.34375 C 0.234375 -0.300781 0.273438 -0.269531 0.328125 -0.25 C 0.390625 -0.226562 0.445312 -0.21875 0.5 -0.21875 C 0.550781 -0.21875 0.585938 -0.222656 0.609375 -0.234375 C 0.628906 -0.253906 0.640625 -0.285156 0.640625 -0.328125 C 0.640625 -0.347656 0.628906 -0.367188 0.609375 -0.390625 C 0.597656 -0.410156 0.566406 -0.425781 0.515625 -0.4375 L 0.375 -0.46875 C 0.269531 -0.476562 0.191406 -0.507812 0.140625 -0.5625 C 0.0976562 -0.613281 0.0703125 -0.679688 0.0625 -0.765625 C 0.0625 -0.828125 0.078125 -0.882812 0.109375 -0.9375 C 0.140625 -0.988281 0.1875 -1.03125 0.25 -1.0625 C 0.3125 -1.09375 0.382812 -1.109375 0.46875 -1.109375 C 0.5625 -1.109375 0.640625 -1.09375 0.703125 -1.0625 C 0.773438 -1.039062 0.828125 -1.007812 0.859375 -0.96875 L 0.71875 -0.8125 L 0.703125 -0.8125 C 0.671875 -0.832031 0.632812 -0.847656 0.59375 -0.859375 C 0.5625 -0.878906 0.519531 -0.890625 0.46875 -0.890625 C 0.363281 -0.890625 0.3125 -0.859375 0.3125 -0.796875 C 0.3125 -0.765625 0.320312 -0.738281 0.34375 -0.71875 C 0.375 -0.707031 0.414062 -0.695312 0.46875 -0.6875 L 0.59375 -0.65625 C 0.695312 -0.644531 0.773438 -0.613281 0.828125 -0.5625 C 0.878906 -0.507812 0.90625 -0.441406 0.90625 -0.359375 C 0.914062 -0.285156 0.90625 -0.222656 0.875 -0.171875 C 0.84375 -0.117188 0.789062 -0.078125 0.71875 -0.046875 C 0.65625 -0.015625 0.582031 0 0.5 0 Z M 0.5 0 "/></g></g></g><g fill="#000000" fill-opacity="1"><g transform="translate(47.796399, 29.84694)"><g><path d="M 1.359375 0 L 1.359375 -10.40625 L 3.40625 -10.40625 L 3.40625 -6.15625 L 3.640625 -6.15625 L 7.109375 -10.40625 L 9.21875 -10.40625 L 9.21875 -10.234375 L 5.390625 -5.5 L 9.609375 -0.171875 L 9.609375 0 L 7.296875 0 L 3.640625 -4.484375 L 3.40625 -4.484375 L 3.40625 0 Z M 1.359375 0 "/></g></g></g><g fill="#000000" fill-opacity="1"><g transform="translate(57.410202, 29.84694)"><g><path d="M 3.0625 0.15625 C 2.5625 0.15625 2.125 0.0625 1.75 -0.125 C 1.382812 -0.3125 1.097656 -0.582031 0.890625 -0.9375 C 0.691406 -1.300781 0.59375 -1.734375 0.59375 -2.234375 C 0.59375 -2.703125 0.691406 -3.09375 0.890625 -3.40625 C 1.097656 -3.71875 1.410156 -3.972656 1.828125 -4.171875 C 2.242188 -4.378906 2.785156 -4.535156 3.453125 -4.640625 C 3.929688 -4.722656 4.289062 -4.804688 4.53125 -4.890625 C 4.769531 -4.984375 4.929688 -5.085938 5.015625 -5.203125 C 5.109375 -5.316406 5.15625 -5.460938 5.15625 -5.640625 C 5.15625 -5.890625 5.066406 -6.078125 4.890625 -6.203125 C 4.710938 -6.335938 4.421875 -6.40625 4.015625 -6.40625 C 3.578125 -6.40625 3.160156 -6.304688 2.765625 -6.109375 C 2.367188 -5.921875 2.03125 -5.671875 1.75 -5.359375 L 1.609375 -5.359375 L 0.78125 -6.59375 C 1.175781 -7.039062 1.660156 -7.382812 2.234375 -7.625 C 2.804688 -7.875 3.429688 -8 4.109375 -8 C 5.148438 -8 5.898438 -7.773438 6.359375 -7.328125 C 6.828125 -6.890625 7.0625 -6.265625 7.0625 -5.453125 L 7.0625 -2.046875 C 7.0625 -1.691406 7.21875 -1.515625 7.53125 -1.515625 C 7.644531 -1.515625 7.757812 -1.539062 7.875 -1.59375 L 7.984375 -1.5625 L 8.125 -0.1875 C 8.007812 -0.113281 7.851562 -0.0507812 7.65625 0 C 7.46875 0.0390625 7.257812 0.0625 7.03125 0.0625 C 6.5625 0.0625 6.191406 -0.0234375 5.921875 -0.203125 C 5.660156 -0.390625 5.472656 -0.675781 5.359375 -1.0625 L 5.203125 -1.078125 C 4.828125 -0.253906 4.113281 0.15625 3.0625 0.15625 Z M 3.6875 -1.328125 C 4.144531 -1.328125 4.507812 -1.476562 4.78125 -1.78125 C 5.050781 -2.09375 5.1875 -2.519531 5.1875 -3.0625 L 5.1875 -3.859375 L 5.046875 -3.890625 C 4.929688 -3.796875 4.773438 -3.710938 4.578125 -3.640625 C 4.390625 -3.578125 4.117188 -3.515625 3.765625 -3.453125 C 3.335938 -3.390625 3.03125 -3.269531 2.84375 -3.09375 C 2.65625 -2.914062 2.5625 -2.671875 2.5625 -2.359375 C 2.5625 -2.015625 2.660156 -1.753906 2.859375 -1.578125 C 3.054688 -1.410156 3.332031 -1.328125 3.6875 -1.328125 Z M 3.6875 -1.328125 "/></g></g></g><g fill="#000000" fill-opacity="1"><g transform="translate(65.686186, 29.84694)"><g><path d="M 3.59375 0.15625 C 2.707031 0.15625 2.054688 -0.0820312 1.640625 -0.5625 C 1.222656 -1.050781 1.015625 -1.742188 1.015625 -2.640625 L 1.015625 -7.84375 L 2.984375 -7.84375 L 2.984375 -2.890625 C 2.984375 -2.410156 3.085938 -2.0625 3.296875 -1.84375 C 3.503906 -1.625 3.820312 -1.515625 4.25 -1.515625 C 4.789062 -1.515625 5.210938 -1.691406 5.515625 -2.046875 C 5.828125 -2.410156 5.984375 -2.976562 5.984375 -3.75 L 5.984375 -7.84375 L 7.953125 -7.84375 L 7.953125 0 L 6.0625 0 L 6.0625 -1.15625 L 5.90625 -1.1875 C 5.65625 -0.738281 5.347656 -0.398438 4.984375 -0.171875 C 4.617188 0.046875 4.15625 0.15625 3.59375 0.15625 Z M 3.59375 0.15625 "/></g></g></g><g fill="#000000" fill-opacity="1"><g transform="translate(74.766284, 29.84694)"><g><path d="M 3.671875 0.15625 C 3.140625 0.15625 2.648438 0.09375 2.203125 -0.03125 C 1.753906 -0.164062 1.367188 -0.34375 1.046875 -0.5625 C 0.734375 -0.78125 0.503906 -1.03125 0.359375 -1.3125 L 1.453125 -2.5 L 1.609375 -2.5 C 1.867188 -2.144531 2.175781 -1.878906 2.53125 -1.703125 C 2.882812 -1.523438 3.269531 -1.4375 3.6875 -1.4375 C 4.070312 -1.4375 4.359375 -1.503906 4.546875 -1.640625 C 4.742188 -1.785156 4.84375 -1.988281 4.84375 -2.25 C 4.84375 -2.445312 4.769531 -2.613281 4.625 -2.75 C 4.488281 -2.882812 4.265625 -2.988281 3.953125 -3.0625 L 2.921875 -3.3125 C 2.140625 -3.5 1.566406 -3.78125 1.203125 -4.15625 C 0.847656 -4.539062 0.671875 -5.023438 0.671875 -5.609375 C 0.671875 -6.097656 0.796875 -6.523438 1.046875 -6.890625 C 1.296875 -7.253906 1.644531 -7.53125 2.09375 -7.71875 C 2.550781 -7.90625 3.082031 -8 3.6875 -8 C 4.394531 -8 4.976562 -7.894531 5.4375 -7.6875 C 5.90625 -7.488281 6.269531 -7.21875 6.53125 -6.875 L 5.484375 -5.734375 L 5.34375 -5.734375 C 5.125 -5.984375 4.875 -6.164062 4.59375 -6.28125 C 4.320312 -6.394531 4.019531 -6.453125 3.6875 -6.453125 C 2.90625 -6.453125 2.515625 -6.207031 2.515625 -5.71875 C 2.515625 -5.519531 2.585938 -5.351562 2.734375 -5.21875 C 2.878906 -5.09375 3.132812 -4.988281 3.5 -4.90625 L 4.46875 -4.703125 C 5.269531 -4.523438 5.851562 -4.25 6.21875 -3.875 C 6.582031 -3.5 6.765625 -2.992188 6.765625 -2.359375 C 6.765625 -1.859375 6.640625 -1.414062 6.390625 -1.03125 C 6.148438 -0.65625 5.796875 -0.363281 5.328125 -0.15625 C 4.867188 0.0507812 4.316406 0.15625 3.671875 0.15625 Z M 3.671875 0.15625 "/></g></g></g><g fill="#000000" fill-opacity="1"><g transform="translate(82.003321, 29.84694)"><g><path d="M 1.125 0 L 1.125 -11 L 3.109375 -11 L 3.109375 -6.828125 L 3.25 -6.796875 C 3.507812 -7.179688 3.828125 -7.476562 4.203125 -7.6875 C 4.585938 -7.894531 5.050781 -8 5.59375 -8 C 7.320312 -8 8.1875 -7.015625 8.1875 -5.046875 L 8.1875 0 L 6.21875 0 L 6.21875 -4.8125 C 6.21875 -5.34375 6.109375 -5.726562 5.890625 -5.96875 C 5.679688 -6.207031 5.347656 -6.328125 4.890625 -6.328125 C 4.347656 -6.328125 3.914062 -6.144531 3.59375 -5.78125 C 3.269531 -5.414062 3.109375 -4.84375 3.109375 -4.0625 L 3.109375 0 Z M 1.125 0 "/></g></g></g><g fill="#000000" fill-opacity="1"><g transform="translate(91.197277, 29.84694)"><g><path d="M 2.109375 -8.796875 C 1.753906 -8.796875 1.460938 -8.898438 1.234375 -9.109375 C 1.015625 -9.328125 0.90625 -9.609375 0.90625 -9.953125 C 0.90625 -10.285156 1.015625 -10.5625 1.234375 -10.78125 C 1.460938 -11 1.753906 -11.109375 2.109375 -11.109375 C 2.347656 -11.109375 2.5625 -11.054688 2.75 -10.953125 C 2.9375 -10.859375 3.078125 -10.722656 3.171875 -10.546875 C 3.273438 -10.367188 3.328125 -10.171875 3.328125 -9.953125 C 3.328125 -9.722656 3.273438 -9.519531 3.171875 -9.34375 C 3.078125 -9.175781 2.9375 -9.039062 2.75 -8.9375 C 2.5625 -8.84375 2.347656 -8.796875 2.109375 -8.796875 Z M 1.125 0 L 1.125 -7.84375 L 3.109375 -7.84375 L 3.109375 0 Z M 1.125 0 "/></g></g></g><g fill="#000000" fill-opacity="1"><g transform="translate(95.424219, 29.84694)"><g><path d="M 1.125 0 L 1.125 -11 L 3.109375 -11 L 3.109375 -4.890625 L 3.296875 -4.890625 L 5.5625 -7.84375 L 7.5625 -7.84375 L 7.5625 -7.6875 L 4.890625 -4.25 L 7.859375 -0.171875 L 7.859375 0 L 5.78125 0 L 3.296875 -3.3125 L 3.109375 -3.3125 L 3.109375 0 Z M 1.125 0 "/></g></g></g><g fill="#000000" fill-opacity="1"><g transform="translate(103.301702, 29.84694)"><g><path d="M 0.34375 -6.765625 C 0.78125 -7.003906 1.144531 -7.273438 1.4375 -7.578125 C 1.726562 -7.890625 1.894531 -8.210938 1.9375 -8.546875 C 1.570312 -8.554688 1.285156 -8.664062 1.078125 -8.875 C 0.878906 -9.082031 0.78125 -9.351562 0.78125 -9.6875 C 0.78125 -9.90625 0.828125 -10.101562 0.921875 -10.28125 C 1.023438 -10.457031 1.164062 -10.597656 1.34375 -10.703125 C 1.53125 -10.804688 1.75 -10.859375 2 -10.859375 C 2.375 -10.859375 2.675781 -10.722656 2.90625 -10.453125 C 3.144531 -10.191406 3.265625 -9.820312 3.265625 -9.34375 C 3.265625 -8.550781 3.050781 -7.875 2.625 -7.3125 C 2.207031 -6.75 1.640625 -6.257812 0.921875 -5.84375 Z M 0.34375 -6.765625 "/></g></g></g><g fill="#000000" fill-opacity="1"><g transform="translate(107.258234, 29.84694)"><g><path d="M 3.671875 0.15625 C 3.140625 0.15625 2.648438 0.09375 2.203125 -0.03125 C 1.753906 -0.164062 1.367188 -0.34375 1.046875 -0.5625 C 0.734375 -0.78125 0.503906 -1.03125 0.359375 -1.3125 L 1.453125 -2.5 L 1.609375 -2.5 C 1.867188 -2.144531 2.175781 -1.878906 2.53125 -1.703125 C 2.882812 -1.523438 3.269531 -1.4375 3.6875 -1.4375 C 4.070312 -1.4375 4.359375 -1.503906 4.546875 -1.640625 C 4.742188 -1.785156 4.84375 -1.988281 4.84375 -2.25 C 4.84375 -2.445312 4.769531 -2.613281 4.625 -2.75 C 4.488281 -2.882812 4.265625 -2.988281 3.953125 -3.0625 L 2.921875 -3.3125 C 2.140625 -3.5 1.566406 -3.78125 1.203125 -4.15625 C 0.847656 -4.539062 0.671875 -5.023438 0.671875 -5.609375 C 0.671875 -6.097656 0.796875 -6.523438 1.046875 -6.890625 C 1.296875 -7.253906 1.644531 -7.53125 2.09375 -7.71875 C 2.550781 -7.90625 3.082031 -8 3.6875 -8 C 4.394531 -8 4.976562 -7.894531 5.4375 -7.6875 C 5.90625 -7.488281 6.269531 -7.21875 6.53125 -6.875 L 5.484375 -5.734375 L 5.34375 -5.734375 C 5.125 -5.984375 4.875 -6.164062 4.59375 -6.28125 C 4.320312 -6.394531 4.019531 -6.453125 3.6875 -6.453125 C 2.90625 -6.453125 2.515625 -6.207031 2.515625 -5.71875 C 2.515625 -5.519531 2.585938 -5.351562 2.734375 -5.21875 C 2.878906 -5.09375 3.132812 -4.988281 3.5 -4.90625 L 4.46875 -4.703125 C 5.269531 -4.523438 5.851562 -4.25 6.21875 -3.875 C 6.582031 -3.5 6.765625 -2.992188 6.765625 -2.359375 C 6.765625 -1.859375 6.640625 -1.414062 6.390625 -1.03125 C 6.148438 -0.65625 5.796875 -0.363281 5.328125 -0.15625 C 4.867188 0.0507812 4.316406 0.15625 3.671875 0.15625 Z M 3.671875 0.15625 "/></g></g></g><g fill="#000000" fill-opacity="1"><g transform="translate(114.495272, 29.84694)"><g/></g></g><g fill="#000000" fill-opacity="1"><g transform="translate(117.932331, 29.84694)"><g><path d="M 7.953125 -10.40625 L 7.953125 -8.6875 L 3.40625 -8.6875 L 3.40625 -5.921875 L 7.53125 -5.921875 L 7.53125 -4.234375 L 3.40625 -4.234375 L 3.40625 0 L 1.359375 0 L 1.359375 -10.40625 Z M 7.953125 -10.40625 "/></g></g></g><g fill="#000000" fill-opacity="1"><g transform="translate(126.343519, 29.84694)"><g><path d="M 4.5625 0.15625 C 3.789062 0.15625 3.113281 0 2.53125 -0.3125 C 1.957031 -0.632812 1.507812 -1.097656 1.1875 -1.703125 C 0.863281 -2.316406 0.703125 -3.054688 0.703125 -3.921875 C 0.703125 -4.785156 0.863281 -5.519531 1.1875 -6.125 C 1.507812 -6.738281 1.957031 -7.203125 2.53125 -7.515625 C 3.113281 -7.835938 3.789062 -8 4.5625 -8 C 5.332031 -8 6.003906 -7.835938 6.578125 -7.515625 C 7.160156 -7.203125 7.613281 -6.738281 7.9375 -6.125 C 8.257812 -5.519531 8.421875 -4.785156 8.421875 -3.921875 C 8.421875 -3.054688 8.257812 -2.316406 7.9375 -1.703125 C 7.613281 -1.097656 7.160156 -0.632812 6.578125 -0.3125 C 6.003906 0 5.332031 0.15625 4.5625 0.15625 Z M 4.5625 -1.515625 C 5.78125 -1.515625 6.390625 -2.316406 6.390625 -3.921875 C 6.390625 -4.753906 6.234375 -5.363281 5.921875 -5.75 C 5.609375 -6.132812 5.15625 -6.328125 4.5625 -6.328125 C 3.34375 -6.328125 2.734375 -5.523438 2.734375 -3.921875 C 2.734375 -2.316406 3.34375 -1.515625 4.5625 -1.515625 Z M 4.5625 -1.515625 "/></g></g></g><g fill="#000000" fill-opacity="1"><g transform="translate(135.466314, 29.84694)"><g><path d="M 4.5625 0.15625 C 3.789062 0.15625 3.113281 0 2.53125 -0.3125 C 1.957031 -0.632812 1.507812 -1.097656 1.1875 -1.703125 C 0.863281 -2.316406 0.703125 -3.054688 0.703125 -3.921875 C 0.703125 -4.785156 0.863281 -5.519531 1.1875 -6.125 C 1.507812 -6.738281 1.957031 -7.203125 2.53125 -7.515625 C 3.113281 -7.835938 3.789062 -8 4.5625 -8 C 5.332031 -8 6.003906 -7.835938 6.578125 -7.515625 C 7.160156 -7.203125 7.613281 -6.738281 7.9375 -6.125 C 8.257812 -5.519531 8.421875 -4.785156 8.421875 -3.921875 C 8.421875 -3.054688 8.257812 -2.316406 7.9375 -1.703125 C 7.613281 -1.097656 7.160156 -0.632812 6.578125 -0.3125 C 6.003906 0 5.332031 0.15625 4.5625 0.15625 Z M 4.5625 -1.515625 C 5.78125 -1.515625 6.390625 -2.316406 6.390625 -3.921875 C 6.390625 -4.753906 6.234375 -5.363281 5.921875 -5.75 C 5.609375 -6.132812 5.15625 -6.328125 4.5625 -6.328125 C 3.34375 -6.328125 2.734375 -5.523438 2.734375 -3.921875 C 2.734375 -2.316406 3.34375 -1.515625 4.5625 -1.515625 Z M 4.5625 -1.515625 "/></g></g></g><g fill="#000000" fill-opacity="1"><g transform="translate(144.589109, 29.84694)"><g><path d="M 5.421875 -1.875 L 5.921875 -0.40625 C 5.710938 -0.238281 5.445312 -0.101562 5.125 0 C 4.800781 0.101562 4.4375 0.15625 4.03125 0.15625 C 3.175781 0.15625 2.53125 -0.0703125 2.09375 -0.53125 C 1.65625 -1 1.4375 -1.675781 1.4375 -2.5625 L 1.4375 -6.296875 L 0.234375 -6.296875 L 0.234375 -7.859375 L 1.4375 -7.859375 L 1.4375 -9.390625 L 3.40625 -9.703125 L 3.40625 -7.859375 L 5.625 -7.859375 L 5.625 -6.296875 L 3.40625 -6.296875 L 3.40625 -2.703125 C 3.40625 -2.316406 3.484375 -2.035156 3.640625 -1.859375 C 3.804688 -1.679688 4.039062 -1.59375 4.34375 -1.59375 C 4.695312 -1.59375 5.003906 -1.6875 5.265625 -1.875 Z M 5.421875 -1.875 "/></g></g></g><g fill="#000000" fill-opacity="1"><g transform="translate(150.687576, 29.84694)"><g><path d="M 1.125 3.1875 L 1.125 -7.84375 L 3.109375 -7.84375 L 3.109375 -6.828125 L 3.25 -6.796875 C 3.488281 -7.191406 3.800781 -7.488281 4.1875 -7.6875 C 4.570312 -7.894531 5.023438 -8 5.546875 -8 C 6.179688 -8 6.734375 -7.847656 7.203125 -7.546875 C 7.679688 -7.253906 8.050781 -6.800781 8.3125 -6.1875 C 8.570312 -5.582031 8.703125 -4.828125 8.703125 -3.921875 C 8.703125 -3.023438 8.5625 -2.269531 8.28125 -1.65625 C 8.007812 -1.050781 7.625 -0.597656 7.125 -0.296875 C 6.632812 0.00390625 6.066406 0.15625 5.421875 0.15625 C 4.929688 0.15625 4.507812 0.0703125 4.15625 -0.09375 C 3.800781 -0.257812 3.5 -0.515625 3.25 -0.859375 L 3.109375 -0.828125 L 3.109375 3.1875 Z M 4.875 -1.515625 C 5.46875 -1.515625 5.914062 -1.707031 6.21875 -2.09375 C 6.519531 -2.476562 6.671875 -3.085938 6.671875 -3.921875 C 6.671875 -4.753906 6.519531 -5.363281 6.21875 -5.75 C 5.914062 -6.132812 5.46875 -6.328125 4.875 -6.328125 C 4.320312 -6.328125 3.882812 -6.125 3.5625 -5.71875 C 3.238281 -5.320312 3.078125 -4.722656 3.078125 -3.921875 C 3.078125 -3.117188 3.238281 -2.515625 3.5625 -2.109375 C 3.882812 -1.710938 4.320312 -1.515625 4.875 -1.515625 Z M 4.875 -1.515625 "/></g></g></g><g fill="#000000" fill-opacity="1"><g transform="translate(160.087897, 29.84694)"><g><path d="M 1.125 0 L 1.125 -7.84375 L 3.046875 -7.84375 L 3.046875 -6.6875 L 3.203125 -6.65625 C 3.390625 -7.09375 3.632812 -7.410156 3.9375 -7.609375 C 4.25 -7.816406 4.625 -7.921875 5.0625 -7.921875 C 5.507812 -7.921875 5.851562 -7.84375 6.09375 -7.6875 L 5.75 -6 L 5.609375 -5.96875 C 5.472656 -6.019531 5.34375 -6.054688 5.21875 -6.078125 C 5.101562 -6.097656 4.960938 -6.109375 4.796875 -6.109375 C 4.242188 -6.109375 3.820312 -5.914062 3.53125 -5.53125 C 3.25 -5.144531 3.109375 -4.523438 3.109375 -3.671875 L 3.109375 0 Z M 1.125 0 "/></g></g></g><g fill="#000000" fill-opacity="1"><g transform="translate(166.243293, 29.84694)"><g><path d="M 2.109375 -8.796875 C 1.753906 -8.796875 1.460938 -8.898438 1.234375 -9.109375 C 1.015625 -9.328125 0.90625 -9.609375 0.90625 -9.953125 C 0.90625 -10.285156 1.015625 -10.5625 1.234375 -10.78125 C 1.460938 -11 1.753906 -11.109375 2.109375 -11.109375 C 2.347656 -11.109375 2.5625 -11.054688 2.75 -10.953125 C 2.9375 -10.859375 3.078125 -10.722656 3.171875 -10.546875 C 3.273438 -10.367188 3.328125 -10.171875 3.328125 -9.953125 C 3.328125 -9.722656 3.273438 -9.519531 3.171875 -9.34375 C 3.078125 -9.175781 2.9375 -9.039062 2.75 -8.9375 C 2.5625 -8.84375 2.347656 -8.796875 2.109375 -8.796875 Z M 1.125 0 L 1.125 -7.84375 L 3.109375 -7.84375 L 3.109375 0 Z M 1.125 0 "/></g></g></g><g fill="#000000" fill-opacity="1"><g transform="translate(170.470235, 29.84694)"><g><path d="M 1.125 0 L 1.125 -7.84375 L 3.03125 -7.84375 L 3.03125 -6.703125 L 3.171875 -6.65625 C 3.660156 -7.550781 4.453125 -8 5.546875 -8 C 6.453125 -8 7.117188 -7.75 7.546875 -7.25 C 7.972656 -6.757812 8.1875 -6.046875 8.1875 -5.109375 L 8.1875 0 L 6.21875 0 L 6.21875 -4.859375 C 6.21875 -5.378906 6.113281 -5.753906 5.90625 -5.984375 C 5.695312 -6.210938 5.359375 -6.328125 4.890625 -6.328125 C 4.328125 -6.328125 3.890625 -6.144531 3.578125 -5.78125 C 3.265625 -5.414062 3.109375 -4.84375 3.109375 -4.0625 L 3.109375 0 Z M 1.125 0 "/></g></g></g><g fill="#000000" fill-opacity="1"><g transform="translate(179.66419, 29.84694)"><g><path d="M 5.421875 -1.875 L 5.921875 -0.40625 C 5.710938 -0.238281 5.445312 -0.101562 5.125 0 C 4.800781 0.101562 4.4375 0.15625 4.03125 0.15625 C 3.175781 0.15625 2.53125 -0.0703125 2.09375 -0.53125 C 1.65625 -1 1.4375 -1.675781 1.4375 -2.5625 L 1.4375 -6.296875 L 0.234375 -6.296875 L 0.234375 -7.859375 L 1.4375 -7.859375 L 1.4375 -9.390625 L 3.40625 -9.703125 L 3.40625 -7.859375 L 5.625 -7.859375 L 5.625 -6.296875 L 3.40625 -6.296875 L 3.40625 -2.703125 C 3.40625 -2.316406 3.484375 -2.035156 3.640625 -1.859375 C 3.804688 -1.679688 4.039062 -1.59375 4.34375 -1.59375 C 4.695312 -1.59375 5.003906 -1.6875 5.265625 -1.875 Z M 5.421875 -1.875 "/></g></g></g><g fill="#000000" fill-opacity="1"><g transform="translate(185.762658, 29.84694)"><g><path d="M 3.671875 0.15625 C 3.140625 0.15625 2.648438 0.09375 2.203125 -0.03125 C 1.753906 -0.164062 1.367188 -0.34375 1.046875 -0.5625 C 0.734375 -0.78125 0.503906 -1.03125 0.359375 -1.3125 L 1.453125 -2.5 L 1.609375 -2.5 C 1.867188 -2.144531 2.175781 -1.878906 2.53125 -1.703125 C 2.882812 -1.523438 3.269531 -1.4375 3.6875 -1.4375 C 4.070312 -1.4375 4.359375 -1.503906 4.546875 -1.640625 C 4.742188 -1.785156 4.84375 -1.988281 4.84375 -2.25 C 4.84375 -2.445312 4.769531 -2.613281 4.625 -2.75 C 4.488281 -2.882812 4.265625 -2.988281 3.953125 -3.0625 L 2.921875 -3.3125 C 2.140625 -3.5 1.566406 -3.78125 1.203125 -4.15625 C 0.847656 -4.539062 0.671875 -5.023438 0.671875 -5.609375 C 0.671875 -6.097656 0.796875 -6.523438 1.046875 -6.890625 C 1.296875 -7.253906 1.644531 -7.53125 2.09375 -7.71875 C 2.550781 -7.90625 3.082031 -8 3.6875 -8 C 4.394531 -8 4.976562 -7.894531 5.4375 -7.6875 C 5.90625 -7.488281 6.269531 -7.21875 6.53125 -6.875 L 5.484375 -5.734375 L 5.34375 -5.734375 C 5.125 -5.984375 4.875 -6.164062 4.59375 -6.28125 C 4.320312 -6.394531 4.019531 -6.453125 3.6875 -6.453125 C 2.90625 -6.453125 2.515625 -6.207031 2.515625 -5.71875 C 2.515625 -5.519531 2.585938 -5.351562 2.734375 -5.21875 C 2.878906 -5.09375 3.132812 -4.988281 3.5 -4.90625 L 4.46875 -4.703125 C 5.269531 -4.523438 5.851562 -4.25 6.21875 -3.875 C 6.582031 -3.5 6.765625 -2.992188 6.765625 -2.359375 C 6.765625 -1.859375 6.640625 -1.414062 6.390625 -1.03125 C 6.148438 -0.65625 5.796875 -0.363281 5.328125 -0.15625 C 4.867188 0.0507812 4.316406 0.15625 3.671875 0.15625 Z M 3.671875 0.15625 "/></g></g></g><g fill="#ff3131" fill-opacity="1"><g transform="translate(50.229268, 41.470105)"><g><path d="M 6 0 L 5.171875 0 L 4.546875 -1.828125 L 1.703125 -1.828125 L 1.078125 0 L 0.265625 0 L 2.59375 -6.671875 L 3.671875 -6.671875 Z M 3.078125 -5.859375 L 1.921875 -2.484375 L 4.328125 -2.484375 L 3.1875 -5.859375 Z M 3.078125 -5.859375 "/></g></g><g transform="translate(56.500378, 41.470105)"><g><path d="M 2.609375 0.09375 C 2.203125 0.09375 1.84375 0 1.53125 -0.1875 C 1.226562 -0.382812 0.988281 -0.675781 0.8125 -1.0625 C 0.632812 -1.457031 0.546875 -1.941406 0.546875 -2.515625 C 0.546875 -3.085938 0.632812 -3.566406 0.8125 -3.953125 C 1 -4.347656 1.253906 -4.640625 1.578125 -4.828125 C 1.898438 -5.023438 2.273438 -5.125 2.703125 -5.125 C 3.035156 -5.125 3.332031 -5.0625 3.59375 -4.9375 C 3.863281 -4.8125 4.09375 -4.601562 4.28125 -4.3125 L 4.390625 -4.328125 L 4.390625 -7.046875 L 5.125 -7.046875 L 5.125 0 L 4.390625 0 L 4.390625 -0.734375 L 4.28125 -0.75 C 4.125 -0.5 3.90625 -0.296875 3.625 -0.140625 C 3.34375 0.015625 3.003906 0.09375 2.609375 0.09375 Z M 2.84375 -0.5625 C 3.3125 -0.5625 3.6875 -0.722656 3.96875 -1.046875 C 4.25 -1.367188 4.390625 -1.859375 4.390625 -2.515625 C 4.390625 -3.171875 4.25 -3.660156 3.96875 -3.984375 C 3.6875 -4.304688 3.3125 -4.46875 2.84375 -4.46875 C 2.351562 -4.46875 1.976562 -4.304688 1.71875 -3.984375 C 1.457031 -3.671875 1.328125 -3.179688 1.328125 -2.515625 C 1.328125 -1.210938 1.832031 -0.5625 2.84375 -0.5625 Z M 2.84375 -0.5625 "/></g></g><g transform="translate(62.511334, 41.470105)"><g><path d="M 0.875 0 L 0.875 -5.03125 L 1.578125 -5.03125 L 1.578125 -4.28125 L 1.671875 -4.265625 C 1.847656 -4.546875 2.054688 -4.757812 2.296875 -4.90625 C 2.535156 -5.050781 2.828125 -5.125 3.171875 -5.125 C 3.554688 -5.125 3.851562 -5.050781 4.0625 -4.90625 C 4.28125 -4.757812 4.445312 -4.519531 4.5625 -4.1875 L 4.65625 -4.1875 C 4.832031 -4.5 5.046875 -4.734375 5.296875 -4.890625 C 5.554688 -5.046875 5.867188 -5.125 6.234375 -5.125 C 6.753906 -5.125 7.140625 -4.984375 7.390625 -4.703125 C 7.648438 -4.421875 7.78125 -4 7.78125 -3.4375 L 7.78125 0 L 7.03125 0 L 7.03125 -3.40625 C 7.03125 -3.769531 6.953125 -4.039062 6.796875 -4.21875 C 6.648438 -4.394531 6.40625 -4.484375 6.0625 -4.484375 C 5.664062 -4.484375 5.335938 -4.335938 5.078125 -4.046875 C 4.828125 -3.753906 4.703125 -3.269531 4.703125 -2.59375 L 4.703125 0 L 3.953125 0 L 3.953125 -3.40625 C 3.953125 -3.769531 3.875 -4.039062 3.71875 -4.21875 C 3.570312 -4.394531 3.328125 -4.484375 2.984375 -4.484375 C 2.578125 -4.484375 2.25 -4.335938 2 -4.046875 C 1.75 -3.765625 1.625 -3.304688 1.625 -2.671875 L 1.625 0 Z M 0.875 0 "/></g></g><g transform="translate(71.091893, 41.470105)"><g><path d="M 1.25 -6 C 1.09375 -6 0.960938 -6.046875 0.859375 -6.140625 C 0.765625 -6.242188 0.71875 -6.375 0.71875 -6.53125 C 0.71875 -6.675781 0.765625 -6.796875 0.859375 -6.890625 C 0.960938 -6.992188 1.09375 -7.046875 1.25 -7.046875 C 1.40625 -7.046875 1.53125 -6.992188 1.625 -6.890625 C 1.726562 -6.796875 1.78125 -6.675781 1.78125 -6.53125 C 1.78125 -6.375 1.726562 -6.242188 1.625 -6.140625 C 1.53125 -6.046875 1.40625 -6 1.25 -6 Z M 0.875 0 L 0.875 -5.03125 L 1.625 -5.03125 L 1.625 0 Z M 0.875 0 "/></g></g><g transform="translate(73.58847, 41.470105)"><g><path d="M 0.875 0 L 0.875 -5.03125 L 1.578125 -5.03125 L 1.578125 -4.25 L 1.671875 -4.21875 C 1.847656 -4.507812 2.0625 -4.734375 2.3125 -4.890625 C 2.570312 -5.046875 2.890625 -5.125 3.265625 -5.125 C 3.867188 -5.125 4.304688 -4.96875 4.578125 -4.65625 C 4.859375 -4.351562 5 -3.878906 5 -3.234375 L 5 0 L 4.25 0 L 4.25 -3.21875 C 4.25 -3.519531 4.207031 -3.765625 4.125 -3.953125 C 4.050781 -4.140625 3.929688 -4.273438 3.765625 -4.359375 C 3.609375 -4.441406 3.398438 -4.484375 3.140625 -4.484375 C 2.679688 -4.484375 2.3125 -4.332031 2.03125 -4.03125 C 1.757812 -3.726562 1.625 -3.242188 1.625 -2.578125 L 1.625 0 Z M 0.875 0 "/></g></g><g transform="translate(79.384912, 41.470105)"><g/></g><g transform="translate(81.676104, 41.470105)"><g><path d="M 3.390625 -6.671875 C 3.847656 -6.671875 4.238281 -6.585938 4.5625 -6.421875 C 4.894531 -6.253906 5.144531 -6.019531 5.3125 -5.71875 C 5.488281 -5.414062 5.578125 -5.054688 5.578125 -4.640625 C 5.578125 -4.222656 5.488281 -3.863281 5.3125 -3.5625 C 5.144531 -3.257812 4.894531 -3.023438 4.5625 -2.859375 C 4.238281 -2.691406 3.847656 -2.609375 3.390625 -2.609375 L 1.796875 -2.609375 L 1.796875 0 L 1.015625 0 L 1.015625 -6.671875 Z M 3.375 -3.28125 C 4.300781 -3.28125 4.765625 -3.734375 4.765625 -4.640625 C 4.765625 -5.546875 4.300781 -6 3.375 -6 L 1.796875 -6 L 1.796875 -3.28125 Z M 3.375 -3.28125 "/></g></g><g transform="translate(87.760085, 41.470105)"><g><path d="M 2.078125 0.09375 C 1.578125 0.09375 1.1875 -0.0351562 0.90625 -0.296875 C 0.632812 -0.554688 0.5 -0.925781 0.5 -1.40625 C 0.5 -1.695312 0.554688 -1.945312 0.671875 -2.15625 C 0.796875 -2.363281 0.988281 -2.53125 1.25 -2.65625 C 1.507812 -2.78125 1.847656 -2.878906 2.265625 -2.953125 C 2.628906 -3.015625 2.90625 -3.082031 3.09375 -3.15625 C 3.289062 -3.238281 3.421875 -3.328125 3.484375 -3.421875 C 3.546875 -3.515625 3.578125 -3.628906 3.578125 -3.765625 C 3.578125 -3.992188 3.5 -4.171875 3.34375 -4.296875 C 3.1875 -4.421875 2.9375 -4.484375 2.59375 -4.484375 C 2.269531 -4.484375 1.988281 -4.421875 1.75 -4.296875 C 1.519531 -4.171875 1.304688 -3.984375 1.109375 -3.734375 L 1.015625 -3.734375 L 0.65625 -4.25 C 0.863281 -4.519531 1.132812 -4.734375 1.46875 -4.890625 C 1.800781 -5.046875 2.175781 -5.125 2.59375 -5.125 C 3.1875 -5.125 3.625 -4.992188 3.90625 -4.734375 C 4.1875 -4.472656 4.328125 -4.113281 4.328125 -3.65625 L 4.328125 -0.984375 C 4.328125 -0.703125 4.445312 -0.5625 4.6875 -0.5625 C 4.757812 -0.5625 4.832031 -0.578125 4.90625 -0.609375 L 4.96875 -0.59375 L 5.0625 -0.078125 C 5.007812 -0.0351562 4.9375 -0.0078125 4.84375 0 C 4.75 0.0195312 4.65625 0.03125 4.5625 0.03125 C 4.289062 0.03125 4.082031 -0.0234375 3.9375 -0.140625 C 3.800781 -0.265625 3.710938 -0.445312 3.671875 -0.6875 L 3.578125 -0.6875 C 3.429688 -0.425781 3.234375 -0.226562 2.984375 -0.09375 C 2.742188 0.03125 2.441406 0.09375 2.078125 0.09375 Z M 2.234375 -0.5 C 2.515625 -0.5 2.757812 -0.5625 2.96875 -0.6875 C 3.175781 -0.820312 3.332031 -1.003906 3.4375 -1.234375 C 3.550781 -1.472656 3.609375 -1.742188 3.609375 -2.046875 L 3.609375 -2.6875 L 3.515625 -2.703125 C 3.398438 -2.628906 3.257812 -2.5625 3.09375 -2.5 C 2.9375 -2.445312 2.71875 -2.398438 2.4375 -2.359375 C 2.144531 -2.316406 1.910156 -2.253906 1.734375 -2.171875 C 1.566406 -2.097656 1.445312 -1.992188 1.375 -1.859375 C 1.300781 -1.734375 1.265625 -1.582031 1.265625 -1.40625 C 1.265625 -1.101562 1.347656 -0.875 1.515625 -0.71875 C 1.691406 -0.570312 1.929688 -0.5 2.234375 -0.5 Z M 2.234375 -0.5 "/></g></g><g transform="translate(92.967754, 41.470105)"><g><path d="M 0.875 0 L 0.875 -5.03125 L 1.578125 -5.03125 L 1.578125 -4.25 L 1.671875 -4.21875 C 1.847656 -4.507812 2.0625 -4.734375 2.3125 -4.890625 C 2.570312 -5.046875 2.890625 -5.125 3.265625 -5.125 C 3.867188 -5.125 4.304688 -4.96875 4.578125 -4.65625 C 4.859375 -4.351562 5 -3.878906 5 -3.234375 L 5 0 L 4.25 0 L 4.25 -3.21875 C 4.25 -3.519531 4.207031 -3.765625 4.125 -3.953125 C 4.050781 -4.140625 3.929688 -4.273438 3.765625 -4.359375 C 3.609375 -4.441406 3.398438 -4.484375 3.140625 -4.484375 C 2.679688 -4.484375 2.3125 -4.332031 2.03125 -4.03125 C 1.757812 -3.726562 1.625 -3.242188 1.625 -2.578125 L 1.625 0 Z M 0.875 0 "/></g></g><g transform="translate(98.764195, 41.470105)"><g><path d="M 4.796875 -2.34375 L 1.34375 -2.34375 C 1.363281 -1.726562 1.507812 -1.273438 1.78125 -0.984375 C 2.050781 -0.703125 2.421875 -0.5625 2.890625 -0.5625 C 3.253906 -0.5625 3.546875 -0.625 3.765625 -0.75 C 3.984375 -0.882812 4.15625 -1.085938 4.28125 -1.359375 L 4.375 -1.359375 L 4.859375 -1.078125 C 4.710938 -0.710938 4.476562 -0.425781 4.15625 -0.21875 C 3.832031 -0.0078125 3.410156 0.09375 2.890625 0.09375 C 2.410156 0.09375 1.992188 0 1.640625 -0.1875 C 1.296875 -0.382812 1.023438 -0.675781 0.828125 -1.0625 C 0.640625 -1.445312 0.546875 -1.929688 0.546875 -2.515625 C 0.546875 -3.085938 0.644531 -3.566406 0.84375 -3.953125 C 1.050781 -4.347656 1.328125 -4.640625 1.671875 -4.828125 C 2.015625 -5.023438 2.40625 -5.125 2.84375 -5.125 C 3.488281 -5.125 3.992188 -4.941406 4.359375 -4.578125 C 4.722656 -4.210938 4.90625 -3.675781 4.90625 -2.96875 C 4.90625 -2.6875 4.898438 -2.5 4.890625 -2.40625 Z M 4.171875 -2.96875 C 4.160156 -3.5 4.039062 -3.882812 3.8125 -4.125 C 3.59375 -4.375 3.269531 -4.5 2.84375 -4.5 C 2.40625 -4.5 2.0625 -4.375 1.8125 -4.125 C 1.5625 -3.882812 1.410156 -3.5 1.359375 -2.96875 Z M 4.171875 -2.96875 "/></g></g><g transform="translate(104.131609, 41.470105)"><g><path d="M 2 0.09375 C 1.644531 0.09375 1.363281 -0.00390625 1.15625 -0.203125 C 0.957031 -0.410156 0.859375 -0.710938 0.859375 -1.109375 L 0.859375 -7.046875 L 1.59375 -7.046875 L 1.59375 -1.15625 C 1.59375 -0.945312 1.632812 -0.796875 1.71875 -0.703125 C 1.800781 -0.609375 1.925781 -0.5625 2.09375 -0.5625 C 2.195312 -0.5625 2.300781 -0.582031 2.40625 -0.625 L 2.484375 -0.609375 L 2.5625 -0.015625 C 2.507812 0.015625 2.429688 0.0390625 2.328125 0.0625 C 2.222656 0.0820312 2.113281 0.09375 2 0.09375 Z M 2 0.09375 "/></g></g></g></svg>